<?xml version="1.0" encoding="utf-8"?>
<!-- Generator: Adobe Illustrator 16.0.0, SVG Export Plug-In . SVG Version: 6.00 Build 0)  -->
<!DOCTYPE svg PUBLIC "-//W3C//DTD SVG 1.1//EN" "http://www.w3.org/Graphics/SVG/1.1/DTD/svg11.dtd">
<svg version="1.1" id="Logo_-_Black_1_" xmlns="http://www.w3.org/2000/svg" xmlns:xlink="http://www.w3.org/1999/xlink" x="0px"
	 y="0px" width="141.732px" height="141.732px" viewBox="0 0 141.732 141.732" style="enable-background:new 0 0 141.732 141.732;"
	 xml:space="preserve">
<style type="text/css">
<![CDATA[
	.st0{fill-rule:evenodd;clip-rule:evenodd;}
]]>
</style>
<g id="Pen">
	<g>
		<path class="st0" d="M41.192,137.855c0,0,0.035-0.035,0.095-0.097l-0.088-0.031C41.195,137.77,41.195,137.813,41.192,137.855z
			 M22.534,75.16c0,0,0.417,2.428-0.538,5.016c-0.929,2.517-3.229,5.195-3.229,5.195s23.621,27.245,22.48,51.333l17.857-38.336
			c-1.641-0.874-2.794-2.602-2.84-4.641c-0.068-2.967,2.206-5.425,5.079-5.489c2.872-0.064,5.256,2.288,5.324,5.255
			c0.068,2.968-2.206,5.426-5.079,5.49c-0.437,0.01-0.856-0.053-1.264-0.148l-17.357,37.263
			c7.393-7.177,36.977-34.384,67.117-41.054c0,0,1.275-6.015,3.946-10.568c3.124-5.327,7.714-9.315,7.714-9.315H22.534z"/>
	</g>
</g>
<g id="Cloud">
	<g>
		<path class="st0" d="M129.982,58.48c-0.446-14.478-11.146-16.482-11.146-16.482s3.655-13.883-10.01-21.114
			c-11.724-6.203-19.386-0.953-21.988,1.402c3.216,3.954,3.855,8.036,3.855,8.036s6.932-7.958,19.149-1.883
			c11.388,5.662,8.342,16.534,8.342,16.534s8.916,1.57,9.287,12.907c0.303,9.24-7.059,10.116-7.059,10.116H38.312
			c0,0-11.712-4.731-7.801-19.535c3.146-11.908,17.832-13.43,17.832-13.43s0.544-20.058,20.99-20.058
			c7.643,0,12.59,2.489,15.779,5.461c-1.79-5.436-7.591-16.746-24.901-16.746c-24.537,0-25.189,25.614-25.189,25.614
			s-17.624,1.944-21.399,17.151c-4.694,18.904,9.362,24.946,9.362,24.946h98.528C121.512,71.398,130.346,70.279,129.982,58.48z"/>
	</g>
</g>
</svg>
