<?xml version="1.0" encoding="utf-8"?>
<!-- Generator: Adobe Illustrator 16.0.0, SVG Export Plug-In . SVG Version: 6.00 Build 0)  -->
<!DOCTYPE svg PUBLIC "-//W3C//DTD SVG 1.1//EN" "http://www.w3.org/Graphics/SVG/1.1/DTD/svg11.dtd">
<svg version="1.1" id="Layer_1" xmlns="http://www.w3.org/2000/svg" xmlns:xlink="http://www.w3.org/1999/xlink" x="0px" y="0px"
	 width="100px" height="100px" viewBox="0 0 100 100" style="enable-background:new 0 0 100 100;" xml:space="preserve">
<g>
	<g>
		<g>
			<polygon points="50.092,82.521 59.521,73.77 54.676,73.77 54.676,25.317 59.521,25.317 50.092,16.567 40.661,25.317 
				45.508,25.317 45.508,73.77 40.661,73.77 			"/>
		</g>
	</g>
	<g>
		<g>
			<polygon points="73.409,72.861 73.889,60.005 70.462,63.432 36.204,29.174 39.631,25.747 26.774,26.227 26.294,39.083 
				29.721,35.655 63.979,69.917 60.553,73.341 			"/>
		</g>
	</g>
	<g>
		<g>
			<polygon points="83.068,49.544 74.317,40.113 74.317,44.96 25.866,44.96 25.866,40.113 17.115,49.544 25.866,58.974 
				25.866,54.128 74.317,54.129 74.317,58.974 			"/>
		</g>
	</g>
	<g>
		<g>
			<polygon points="73.409,26.227 60.553,25.747 63.979,29.174 29.72,63.432 26.294,60.005 26.773,72.86 39.63,73.341 
				36.203,69.915 70.462,35.655 73.889,39.083 			"/>
		</g>
	</g>
</g>
</svg>
