<?xml version="1.0" encoding="utf-8"?>
<!-- Generator: Adobe Illustrator 16.0.0, SVG Export Plug-In . SVG Version: 6.00 Build 0)  -->
<!DOCTYPE svg PUBLIC "-//W3C//DTD SVG 1.1//EN" "http://www.w3.org/Graphics/SVG/1.1/DTD/svg11.dtd">
<svg version="1.1" id="Layer_1" xmlns="http://www.w3.org/2000/svg" xmlns:xlink="http://www.w3.org/1999/xlink" x="0px" y="0px"
	 width="100px" height="100px" viewBox="0 0 100 100" style="enable-background:new 0 0 100 100;" xml:space="preserve">
<g>
	<path d="M50.47,81.441c-17.282,0-31.342-14.062-31.342-31.344c0-11.174,6.02-21.585,15.709-27.171
		c0.358-0.206,0.723-0.406,1.092-0.601c4.451-2.335,9.48-3.57,14.541-3.57c17.282,0,31.344,14.06,31.344,31.342
		S67.752,81.441,50.47,81.441L50.47,81.441z M50.47,21.522c-4.614,0-9.198,1.127-13.257,3.256c-0.336,0.176-0.666,0.358-0.991,0.545
		c-8.837,5.095-14.326,14.588-14.326,24.774c0,15.756,12.819,28.574,28.574,28.574c15.756,0,28.575-12.818,28.575-28.574
		S66.226,21.522,50.47,21.522L50.47,21.522z"/>
</g>
<g>
	<path d="M74.093,46.097c-1.611,0-3.192-0.486-4.561-0.906l-0.112-0.034c-3.208-0.984-5.508-3.653-8.169-6.745
		c-3.186-3.697-6.796-7.889-13.043-10.617c-5.522-2.413-11.671-2.856-11.731-2.859l0.188-2.762
		c0.271,0.018,6.693,0.483,12.652,3.085c6.825,2.98,10.821,7.62,14.032,11.348c2.479,2.88,4.438,5.153,6.884,5.904l0.112,0.035
		c3.626,1.111,5.61,1.537,7.597-1.867l2.392,1.395C78.504,45.208,76.271,46.097,74.093,46.097L74.093,46.097z"/>
</g>
<g>
	<path d="M78.597,58.442c-0.02-0.026-2.498-3.189-10.227-7.63c-6.146-3.529-20.527-8.835-30.458-9.191
		c-9.944-0.359-15.801,1.982-15.859,2.008l-1.056-2.559c0.257-0.106,6.405-2.594,17.016-2.217c10.37,0.375,25.348,5.89,31.736,9.56
		c8.313,4.775,10.954,8.223,11.063,8.367L78.597,58.442L78.597,58.442z"/>
</g>
<g>
	<path d="M72.065,72.669l-2.521-1.142c4.242-9.367-2.686-14.358-2.982-14.567c-1.633-1.141-7.279-3.003-14.313-1.471
		c-1.955,0.426-4.076,1.522-6.323,2.681c-4.525,2.336-9.652,4.986-16.317,4.101c-2.644-0.351-6.891-1.296-7.069-1.337l0.604-2.701
		c0.043,0.01,4.308,0.959,6.83,1.294c5.801,0.77,10.521-1.667,14.684-3.816c2.413-1.245,4.692-2.423,7.004-2.926
		c7.643-1.665,14.172,0.287,16.488,1.909C68.524,54.955,77.247,61.233,72.065,72.669L72.065,72.669z"/>
</g>
<g>
	<path d="M39.015,78.964l-0.742-2.667c0.234-0.066,23.563-6.745,28.514-22.736c3.257-10.52,3.124-18.996-0.433-27.48l2.552-1.07
		c3.825,9.125,3.988,18.184,0.525,29.369C64.029,71.82,40.033,78.68,39.015,78.964L39.015,78.964z"/>
</g>
</svg>
