<?xml version="1.0" encoding="utf-8"?>
<!-- Generator: Adobe Illustrator 16.0.0, SVG Export Plug-In . SVG Version: 6.00 Build 0)  -->
<!DOCTYPE svg PUBLIC "-//W3C//DTD SVG 1.1//EN" "http://www.w3.org/Graphics/SVG/1.1/DTD/svg11.dtd">
<svg version="1.1" id="Layer_1" xmlns="http://www.w3.org/2000/svg" xmlns:xlink="http://www.w3.org/1999/xlink" x="0px" y="0px"
	 width="100px" height="100px" viewBox="0 0 100 100" style="enable-background:new 0 0 100 100;" xml:space="preserve">
<path d="M75.635,19.469c-0.089-0.179-0.361-0.201-0.361-0.201c-1.848-0.069-3.012-1.816-3.513-2.771h0.021
	c0,0-0.074-0.12-0.177-0.313c-0.087-0.186-0.131-0.3-0.131-0.3h-0.021c-0.46-0.955-1.056-2.702,0.725-2.772
	c0,0,0.248-0.022,0.159-0.2c-0.095-0.188-0.358-0.188-0.358-0.188H28.805c0,0-4.667,0.011-2.879,3.453
	c1.662,3.472,6.367,3.482,6.367,3.482h43.173C75.466,19.657,75.73,19.657,75.635,19.469z"/>
<g>
	<path d="M25.499,18.396c0,0,1.944,2.896,5.618,3.011v52.49c0,0-5.645,0-5.618-3.463C25.516,68.109,25.499,18.396,25.499,18.396z"/>
</g>
<g>
	<polyline points="33.229,76.185 40.171,76.185 40.171,87.124 36.699,84.811 33.229,87.124 33.229,76.185 	"/>
</g>
<path d="M75.07,21.588H33.813c-0.322,0-0.584,0.39-0.584,0.868v50.991c0,0.479,0.262,0.867,0.584,0.867H75.07
	c0.322,0,0.585-0.389,0.585-0.867V22.456C75.655,21.978,75.393,21.588,75.07,21.588z M60.563,40.258
	c0,0.583-0.472,1.055-1.054,1.055h-3.216v8.07c0,0.581-0.413,1.054-0.922,1.054h-1.859c-0.511,0-0.923-0.473-0.923-1.054v-8.07
	h-3.216c-0.583,0-1.055-0.472-1.055-1.055v-1.146c0-0.583,0.472-1.056,1.055-1.056h3.216v-3.21c0-0.582,0.412-1.054,0.923-1.054
	h1.859c0.509,0,0.922,0.472,0.922,1.054v3.21h3.216c0.582,0,1.054,0.473,1.054,1.056V40.258z"/>
</svg>
