<?xml version="1.0" encoding="utf-8"?>
<!-- Generator: Adobe Illustrator 16.0.0, SVG Export Plug-In . SVG Version: 6.00 Build 0)  -->
<!DOCTYPE svg PUBLIC "-//W3C//DTD SVG 1.1//EN" "http://www.w3.org/Graphics/SVG/1.1/DTD/svg11.dtd">
<svg version="1.1" id="Layer_1" xmlns="http://www.w3.org/2000/svg" xmlns:xlink="http://www.w3.org/1999/xlink" x="0px" y="0px"
	 width="100px" height="100px" viewBox="0 0 100 100" style="enable-background:new 0 0 100 100;" xml:space="preserve">
<g>
	<g>
		<path d="M56.345,17.479H47.6c-0.394,0-0.713,0.319-0.713,0.717v43.396h10.17V18.196C57.057,17.799,56.737,17.479,56.345,17.479z
			 M51.973,30.335c-1.715,0-3.106-1.752-3.106-3.91c0-2.16,1.391-3.91,3.106-3.91c1.715,0,3.104,1.75,3.104,3.91
			C55.076,28.583,53.688,30.335,51.973,30.335z"/>
	</g>
	<g>
		<path d="M46.887,71.217c0,0.396,0.32,0.717,0.713,0.717h8.745c0.393,0,0.712-0.321,0.712-0.717v-4.929h-10.17V71.217z"/>
	</g>
	<g>
		<rect x="46.887" y="63.412" width="10.17" height="1.06"/>
	</g>
	<g>
		<path d="M43.55,17.479H28.942c-0.393,0-0.712,0.319-0.712,0.717v53.021c0,0.396,0.32,0.717,0.712,0.717H43.55
			c0.393,0,0.712-0.321,0.712-0.717V18.196C44.262,17.799,43.943,17.479,43.55,17.479z M39.2,66.705
			c0,0.691-0.559,1.249-1.249,1.249h-3.41c-0.69,0-1.249-0.558-1.249-1.249V65.72c0-0.688,0.559-1.248,1.249-1.248h3.41
			c0.69,0,1.249,0.56,1.249,1.248V66.705z M41.375,32.043H31.117c-0.472,0-0.853-0.383-0.853-0.855c0-0.47,0.381-0.853,0.853-0.853
			h10.258c0.472,0,0.853,0.383,0.853,0.853C42.228,31.66,41.847,32.043,41.375,32.043z M41.375,28.559H31.117
			c-0.472,0-0.853-0.382-0.853-0.854c0-0.471,0.381-0.853,0.853-0.853h10.258c0.472,0,0.853,0.382,0.853,0.853
			C42.228,28.177,41.847,28.559,41.375,28.559z M41.375,25.075H31.117c-0.472,0-0.853-0.382-0.853-0.854
			c0-0.47,0.381-0.854,0.853-0.854h10.258c0.472,0,0.853,0.384,0.853,0.854C42.228,24.693,41.847,25.075,41.375,25.075z"/>
	</g>
	<g>
		<path d="M67.107,24.344c-0.049-0.393-0.405-0.671-0.796-0.622l-6.892,0.865c-0.393,0.05-0.669,0.407-0.619,0.801l0.23,1.843
			l8.307-1.041L67.107,24.344z"/>
	</g>
	<g>
		<path d="M72.577,67.927l-8.307,1.044l0.292,2.334c0.05,0.394,0.406,0.672,0.797,0.624l6.893-0.866
			c0.391-0.049,0.667-0.408,0.618-0.801L72.577,67.927z"/>
	</g>
	<g>
		<path d="M67.564,27.993l-8.307,1.04l4.785,38.133l8.308-1.041L67.564,27.993z M65.756,44.438l-0.68,0.086
			c-0.685,0.085-1.309-0.4-1.395-1.084L62.31,32.505c-0.085-0.685,0.399-1.309,1.083-1.395l0.679-0.085
			c0.684-0.087,1.31,0.4,1.395,1.084l1.372,10.935C66.926,43.728,66.439,44.351,65.756,44.438z"/>
	</g>
</g>
<g>
	<path d="M81.872,73.735c-0.162-0.241-0.432-0.387-0.723-0.387H19.957c-0.291,0-0.561,0.146-0.722,0.387
		c-0.161,0.241-0.189,0.547-0.078,0.814l2.728,6.514c0.135,0.321,0.45,0.531,0.8,0.531h55.74c0.349,0,0.664-0.21,0.799-0.531
		l2.727-6.514C82.061,74.282,82.033,73.977,81.872,73.735z"/>
</g>
</svg>
