<?xml version="1.0" encoding="utf-8"?>
<!-- Generator: Adobe Illustrator 16.0.0, SVG Export Plug-In . SVG Version: 6.00 Build 0)  -->
<!DOCTYPE svg PUBLIC "-//W3C//DTD SVG 1.1//EN" "http://www.w3.org/Graphics/SVG/1.1/DTD/svg11.dtd">
<svg version="1.1" id="Layer_1" xmlns="http://www.w3.org/2000/svg" xmlns:xlink="http://www.w3.org/1999/xlink" x="0px" y="0px"
	 width="100px" height="100px" viewBox="0 0 100 100" style="enable-background:new 0 0 100 100;" xml:space="preserve">
<g>
	<path d="M72.654,20.149c-0.094-0.185-0.354-0.185-0.354-0.185H29.907c0,0-4.894,0-2.664,3.705h44.866c0,0-2.02-3.229,0.388-3.322
		C72.497,20.348,72.741,20.323,72.654,20.149z"/>
	<path d="M75.891,26.589c0.095,0.186-0.164,0.186-0.164,0.186H33.332c0,0-4.894,0-6.392-3.707h44.866c0,0,1.229,3.231,3.73,3.324
		C75.537,26.392,75.805,26.415,75.891,26.589z"/>
</g>
<path d="M26.661,25.536c0,0,0.001,2.55,0.002,6.505c0.818,1.286,2.212,2.304,3.803,2.304c0.313,0,0.566,0.253,0.566,0.565
	c0,0.313-0.253,0.566-0.566,0.566c-1.479,0-2.801-0.67-3.802-1.654c0,0.561,0,1.142,0,1.74c0.819,1.284,2.213,2.302,3.802,2.302
	c0.313,0,0.566,0.253,0.566,0.566c0,0.313-0.253,0.566-0.566,0.566c-1.479,0-2.801-0.671-3.801-1.653c0,0.569,0,1.147,0,1.74
	c0.819,1.284,2.212,2.301,3.801,2.301c0.313,0,0.566,0.253,0.566,0.565c0,0.313-0.253,0.566-0.566,0.566
	c-1.479,0-2.8-0.67-3.801-1.652c0,0.573,0.001,1.153,0.001,1.741c0.818,1.282,2.211,2.298,3.8,2.298
	c0.313,0,0.566,0.253,0.566,0.566c0,0.313-0.253,0.565-0.566,0.565c-1.478,0-2.799-0.669-3.799-1.65
	c0.002,14.013,0.004,30.928-0.006,32.249c-0.025,3.399,5.517,3.399,5.517,3.399V28.492C28.571,28.379,26.661,25.536,26.661,25.536z"
	/>
<path d="M75.338,28.671H34.826c-0.317,0-0.574,0.381-0.574,0.852v50.071c0,0.471,0.257,0.853,0.574,0.853h40.512
	c0.315,0,0.574-0.382,0.574-0.853V29.522C75.912,29.052,75.653,28.671,75.338,28.671z M66.962,42.573
	c0,1.222-0.989,2.213-2.212,2.213H45.414c-1.222,0-2.212-0.991-2.212-2.213v-1.247c0-1.222,0.99-2.212,2.212-2.212H64.75
	c1.223,0,2.212,0.99,2.212,2.212V42.573z"/>
</svg>
