<?xml version="1.0" encoding="utf-8"?>
<!-- Generator: Adobe Illustrator 16.0.0, SVG Export Plug-In . SVG Version: 6.00 Build 0)  -->
<!DOCTYPE svg PUBLIC "-//W3C//DTD SVG 1.1//EN" "http://www.w3.org/Graphics/SVG/1.1/DTD/svg11.dtd">
<svg version="1.1" id="Layer_1" xmlns="http://www.w3.org/2000/svg" xmlns:xlink="http://www.w3.org/1999/xlink" x="0px" y="0px"
	 width="100px" height="100px" viewBox="0 0 100 100" style="enable-background:new 0 0 100 100;" xml:space="preserve">
<g>
	<g>
		<g>
			<path d="M59.287,68.361H40.585c-0.527,0-1.065-0.131-1.353-0.573c-0.276-0.421-0.371-0.824-0.194-1.28
				c-0.015-0.36-0.183-1.853-1.761-5.573c-1.346-3.176-2.342-5.708-2.879-7.11c-4.863-4.397-7.644-10.641-7.644-17.196
				c0-12.782,10.4-23.181,23.182-23.181s23.181,10.398,23.181,23.181c0,6.553-2.779,12.799-7.643,17.196
				c-0.538,1.403-1.533,3.937-2.88,7.11c-1.579,3.721-1.746,5.213-1.761,5.575c0.177,0.454,0.08,0.857-0.194,1.279
				C60.352,68.23,59.814,68.361,59.287,68.361L59.287,68.361z M42.012,65.238h15.847c0.229-1.169,0.756-2.917,1.861-5.523
				c1.449-3.418,2.484-6.079,2.973-7.36c0.09-0.238,0.239-0.45,0.432-0.621c4.367-3.813,6.871-9.32,6.871-15.105
				c0-11.061-8.999-20.058-20.06-20.058c-11.061,0-20.059,8.997-20.059,20.058c0,5.785,2.504,11.292,6.87,15.105
				c0.192,0.171,0.342,0.382,0.433,0.621c0.487,1.28,1.521,3.939,2.973,7.361C41.258,62.321,41.785,64.069,42.012,65.238
				L42.012,65.238z"/>
		</g>
	</g>
</g>
<g>
	<g>
		<g>
			<g>
				<path d="M57.35,68.977H40.321c0,0-0.386,0.693-0.386,2.053c0,1.026,0.386,2.051,0.386,2.051L57.35,68.977z"/>
			</g>
		</g>
	</g>
	<g>
		<g>
			<g>
				<path d="M40.551,73.834l18.662-4.597c0,0,0.726-0.104,0.726,1.045c0,1.105-0.726,1.253-0.726,1.253l-18.662,4.501
					c0,0-0.448-0.236-0.448-1.141C40.103,73.952,40.551,73.834,40.551,73.834"/>
			</g>
		</g>
	</g>
	<g>
		<g>
			<g>
				<path d="M40.551,77.075l18.662-4.594c0,0,0.726-0.104,0.726,1.044c0,1.105-0.726,1.253-0.726,1.253l-18.662,4.5
					c0,0-0.448-0.237-0.448-1.141C40.103,77.195,40.551,77.075,40.551,77.075"/>
			</g>
		</g>
	</g>
	<g>
		<g>
			<g>
				<path d="M40.551,80.317l18.662-4.595c0,0,0.726-0.105,0.726,1.045c0,1.104-0.726,1.253-0.726,1.253l-18.662,4.5
					c0,0-0.448-0.237-0.448-1.141C40.103,80.436,40.551,80.317,40.551,80.317"/>
			</g>
		</g>
	</g>
	<g>
		<g>
			<g>
				<path d="M42.263,83.079h17.028c0,0,0.387-0.692,0.387-2.052c0-1.026-0.387-2.052-0.387-2.052L42.263,83.079z"/>
			</g>
		</g>
	</g>
</g>
<g>
	<g>
		<path d="M49.937,45.695"/>
	</g>
	<g>
		<path d="M47.235,45.763c-0.336,0-0.608-0.271-0.608-0.605c0-1.234-0.94-2.237-2.094-2.237c-1.156,0-2.095,1.003-2.095,2.237
			c0,0.335-0.271,0.605-0.607,0.605c-0.336,0-0.608-0.271-0.608-0.605c0-1.904,1.484-3.453,3.31-3.453
			c1.824,0,3.309,1.549,3.309,3.453C47.842,45.492,47.571,45.763,47.235,45.763L47.235,45.763z"/>
	</g>
	<g>
		<path d="M52.639,45.763c-0.336,0-0.607-0.271-0.607-0.605c0-1.234-0.939-2.237-2.094-2.237s-2.095,1.003-2.095,2.237
			c0,0.335-0.271,0.605-0.607,0.605c-0.336,0-0.608-0.271-0.608-0.605c0-1.904,1.485-3.453,3.31-3.453
			c1.825,0,3.309,1.549,3.309,3.453C53.246,45.492,52.975,45.763,52.639,45.763L52.639,45.763z"/>
	</g>
	<g>
		<path d="M58.043,45.763c-0.336,0-0.607-0.271-0.607-0.605c0-1.234-0.939-2.237-2.096-2.237c-1.155,0-2.094,1.003-2.094,2.237
			c0,0.335-0.271,0.605-0.607,0.605s-0.607-0.271-0.607-0.605c0-1.904,1.484-3.453,3.309-3.453c1.825,0,3.311,1.549,3.311,3.453
			C58.65,45.492,58.379,45.763,58.043,45.763L58.043,45.763z"/>
	</g>
	<g>
		<path d="M45.554,62.882c-0.422,0-0.801-0.296-0.89-0.728l-3.471-16.813c-0.102-0.493,0.216-0.975,0.708-1.075
			c0.487-0.103,0.974,0.215,1.076,0.707l3.469,16.814c0.103,0.491-0.214,0.975-0.707,1.075
			C45.678,62.875,45.616,62.882,45.554,62.882L45.554,62.882z"/>
	</g>
	<g>
		<path d="M54.318,62.882c-0.061,0-0.123-0.007-0.186-0.02c-0.492-0.101-0.81-0.584-0.707-1.075l3.469-16.814
			c0.104-0.492,0.588-0.81,1.077-0.707c0.493,0.101,0.81,0.582,0.708,1.075l-3.471,16.813C55.12,62.586,54.742,62.882,54.318,62.882
			L54.318,62.882z"/>
	</g>
</g>
<g>
	<path d="M54.828,85.883h-9.784c-0.502,0-0.91-0.407-0.91-0.912c0-0.502,0.408-0.91,0.91-0.91h9.784c0.504,0,0.912,0.408,0.912,0.91
		C55.74,85.476,55.332,85.883,54.828,85.883L54.828,85.883z"/>
</g>
</svg>
