<?xml version="1.0" encoding="utf-8"?>
<!-- Generator: Adobe Illustrator 16.0.0, SVG Export Plug-In . SVG Version: 6.00 Build 0)  -->
<!DOCTYPE svg PUBLIC "-//W3C//DTD SVG 1.1//EN" "http://www.w3.org/Graphics/SVG/1.1/DTD/svg11.dtd">
<svg version="1.1" id="Layer_1" xmlns="http://www.w3.org/2000/svg" xmlns:xlink="http://www.w3.org/1999/xlink" x="0px" y="0px"
	 width="100px" height="100px" viewBox="0 0 100 100" style="enable-background:new 0 0 100 100;" xml:space="preserve">
<g>
	<path d="M43.348,20.671c0.936,0,1.692,0.758,1.692,1.692v21.341c0,0.933-0.757,1.691-1.692,1.691H22.009
		c-0.937,0-1.694-0.759-1.694-1.691V22.363c0-0.935,0.758-1.692,1.694-1.692H43.348 M43.348,18.321H22.009
		c-2.23,0-4.041,1.813-4.041,4.042v21.341c0,2.227,1.811,4.041,4.041,4.041h21.339c2.229,0,4.041-1.814,4.041-4.041V22.363
		C47.389,20.134,45.577,18.321,43.348,18.321L43.348,18.321z"/>
</g>
<g>
	<path d="M78.689,55.57c0.936,0,1.692,0.758,1.692,1.693v21.34c0,0.936-0.757,1.691-1.692,1.691H57.351
		c-0.935,0-1.692-0.756-1.692-1.691v-21.34c0-0.936,0.758-1.693,1.692-1.693H78.689 M78.689,53.222H57.351
		c-2.229,0-4.042,1.813-4.042,4.042v21.34c0,2.229,1.813,4.041,4.042,4.041h21.339c2.229,0,4.042-1.812,4.042-4.041v-21.34
		C82.731,55.035,80.919,53.222,78.689,53.222L78.689,53.222z"/>
</g>
<g>
	<path d="M40.074,33.329c0,0.935-0.758,1.69-1.693,1.69H26.975c-0.935,0-1.691-0.756-1.691-1.69v-0.591
		c0-0.935,0.757-1.691,1.691-1.691h11.406c0.936,0,1.693,0.757,1.693,1.691V33.329z"/>
</g>
<path d="M78.689,18.321H57.351c-2.229,0-4.042,1.813-4.042,4.042v21.341c0,2.227,1.813,4.041,4.042,4.041h21.339
	c2.229,0,4.042-1.814,4.042-4.041V22.363C82.731,20.134,80.919,18.321,78.689,18.321z M75.416,33.329c0,0.935-0.756,1.69-1.693,1.69
	h-3.714v3.717c0,0.935-0.758,1.692-1.694,1.692h-0.589c-0.936,0-1.691-0.758-1.691-1.692V35.02h-3.718
	c-0.934,0-1.692-0.756-1.692-1.69v-0.591c0-0.935,0.759-1.691,1.692-1.691h3.718v-3.718c0-0.933,0.756-1.689,1.691-1.689h0.589
	c0.937,0,1.694,0.757,1.694,1.689v3.718h3.714c0.938,0,1.693,0.757,1.693,1.691V33.329z"/>
<g>
	<g>
		<path d="M73.458,62.912c0.661,0.662,0.661,1.732,0,2.395l-8.066,8.065c-0.662,0.66-1.73,0.66-2.393,0l-0.418-0.417
			c-0.659-0.663-0.659-1.732,0-2.394l8.066-8.066c0.663-0.66,1.733-0.66,2.394,0L73.458,62.912z"/>
	</g>
	<g>
		<path d="M63.001,62.495c0.66-0.661,1.732-0.661,2.391,0l8.067,8.066c0.66,0.661,0.66,1.73,0,2.393l-0.417,0.416
			c-0.661,0.662-1.731,0.662-2.394,0l-8.063-8.065c-0.663-0.66-0.663-1.73,0-2.393L63.001,62.495z"/>
	</g>
</g>
<path d="M43.337,53.3H21.996c-2.229,0-4.042,1.814-4.042,4.042v21.342c0,2.228,1.813,4.04,4.042,4.04h21.341
	c2.228,0,4.041-1.813,4.041-4.04V57.342C47.378,55.114,45.564,53.3,43.337,53.3z M32.665,60.528c1.119,0,2.026,0.906,2.026,2.025
	c0,1.118-0.907,2.024-2.026,2.024c-1.118,0-2.023-0.906-2.023-2.024C30.642,61.435,31.547,60.528,32.665,60.528z M32.665,75.498
	c-1.118,0-2.023-0.906-2.023-2.024c0-1.12,0.905-2.025,2.023-2.025c1.119,0,2.026,0.905,2.026,2.025
	C34.691,74.592,33.784,75.498,32.665,75.498z M40.061,68.308c0,0.935-0.758,1.692-1.692,1.692H26.961
	c-0.932,0-1.689-0.758-1.689-1.692v-0.59c0-0.935,0.758-1.691,1.689-1.691h11.407c0.935,0,1.692,0.757,1.692,1.691V68.308z"/>
</svg>
