<?xml version="1.0" encoding="utf-8"?>
<!-- Generator: Adobe Illustrator 16.0.0, SVG Export Plug-In . SVG Version: 6.00 Build 0)  -->
<!DOCTYPE svg PUBLIC "-//W3C//DTD SVG 1.1//EN" "http://www.w3.org/Graphics/SVG/1.1/DTD/svg11.dtd">
<svg version="1.1" id="Layer_1" xmlns="http://www.w3.org/2000/svg" xmlns:xlink="http://www.w3.org/1999/xlink" x="0px" y="0px"
	 width="100px" height="100px" viewBox="0 0 100 100" style="enable-background:new 0 0 100 100;" xml:space="preserve">
<g>
	<path d="M58.934,28.121v2.872h-2.246v20.386l25.447,34.209H53.693h-6.698H18.554l25.448-34.209V30.993h-2.247v-2.872h5.24h6.698
		H58.934 M58.934,25.618h-5.24h-6.698h-5.24c-1.382,0-2.503,1.12-2.503,2.503v2.872c0,1.296,0.985,2.361,2.247,2.49v17.065
		L16.546,84.094c-0.566,0.76-0.654,1.772-0.229,2.617c0.425,0.848,1.29,1.381,2.237,1.381h28.441h6.698h28.441
		c0.947,0,1.813-0.533,2.238-1.381c0.424-0.845,0.336-1.857-0.229-2.617L59.19,50.549V33.483c1.263-0.129,2.247-1.194,2.247-2.49
		v-2.872C61.438,26.738,60.316,25.618,58.934,25.618L58.934,25.618z"/>
</g>
<path d="M59.173,59.615h-8.828h0h-8.828L23.925,82.949h26.419h0h26.419L59.173,59.615z M43.371,74.333
	c-1.488,0-2.692-1.205-2.692-2.692c0-1.486,1.205-2.692,2.692-2.692c1.487,0,2.692,1.206,2.692,2.692
	C46.063,73.128,44.857,74.333,43.371,74.333z M49.293,66.914c-0.859,0-1.555-0.697-1.555-1.555c0-0.859,0.696-1.556,1.555-1.556
	s1.556,0.696,1.556,1.556C50.849,66.217,50.152,66.914,49.293,66.914z M58.029,77.684c-1.322,0-2.393-1.071-2.393-2.393
	s1.07-2.394,2.393-2.394s2.393,1.072,2.393,2.394S59.352,77.684,58.029,77.684z"/>
<g>
	<path d="M47.105,23.451c-1.735,0-3.147-1.413-3.147-3.147c0-1.736,1.412-3.147,3.147-3.147c1.736,0,3.147,1.411,3.147,3.147
		C50.253,22.038,48.841,23.451,47.105,23.451L47.105,23.451z M47.105,19.032c-0.701,0-1.27,0.57-1.27,1.271
		c0,0.699,0.569,1.27,1.27,1.27s1.27-0.57,1.27-1.27C48.375,19.603,47.806,19.032,47.105,19.032L47.105,19.032z"/>
</g>
<g>
	<path d="M53.383,18.124c-1.916,0-3.473-1.559-3.473-3.473s1.557-3.473,3.473-3.473c1.914,0,3.473,1.559,3.473,3.473
		S55.297,18.124,53.383,18.124L53.383,18.124z M53.383,13.056c-0.88,0-1.596,0.717-1.596,1.596s0.716,1.595,1.596,1.595
		c0.879,0,1.594-0.716,1.594-1.595S54.262,13.056,53.383,13.056L53.383,13.056z"/>
</g>
</svg>
