<?xml version="1.0" encoding="utf-8"?>
<!-- Generator: Adobe Illustrator 16.0.0, SVG Export Plug-In . SVG Version: 6.00 Build 0)  -->
<!DOCTYPE svg PUBLIC "-//W3C//DTD SVG 1.1//EN" "http://www.w3.org/Graphics/SVG/1.1/DTD/svg11.dtd">
<svg version="1.1" id="Layer_1" xmlns="http://www.w3.org/2000/svg" xmlns:xlink="http://www.w3.org/1999/xlink" x="0px" y="0px"
	 width="100px" height="100px" viewBox="0 0 100 100" style="enable-background:new 0 0 100 100;" xml:space="preserve">
<g>
	<path d="M78.087,55.841c-6.997,0-12.272-2.806-12.272-6.528c0-3.721,5.275-6.528,12.272-6.528c6.996,0,12.271,2.808,12.271,6.528
		C90.357,53.035,85.083,55.841,78.087,55.841L78.087,55.841z M78.087,45.981c-5.456,0-9.075,2.005-9.075,3.331
		s3.619,3.332,9.075,3.332c5.455,0,9.075-2.006,9.075-3.332S83.542,45.981,78.087,45.981L78.087,45.981z"/>
</g>
<g>
	<path d="M66.984,27.854c5.031-4.861,10.775-6.509,13.363-3.832c2.584,2.677,0.738,8.36-4.293,13.221
		c-5.031,4.861-10.775,6.508-13.359,3.832C60.107,38.398,61.953,32.716,66.984,27.854L66.984,27.854z M73.834,34.944
		c3.923-3.79,5.135-7.747,4.214-8.7c-0.923-0.954-4.919,0.119-8.842,3.909c-3.925,3.79-5.134,7.747-4.212,8.701
		C65.915,39.808,69.911,38.735,73.834,34.944L73.834,34.944z"/>
</g>
<path d="M58.296,47.646l7.557-7.588l-2.124-2.116L55.2,46.147c-1.614-1.27-5.782-2.938-16.565-3.146
	c-17.67-0.344-28.831,7.967-28.831,7.967l40.472-0.083L21.262,78.802c0,0,13.799-1.778,26.27-14.303
	c7.43-7.462,9.36-11.546,9.708-13.628l11.496-0.023l0.058-2.998L58.296,47.646z M54.513,50.773c-0.79,0-1.433-0.642-1.433-1.432
	c0-0.792,0.643-1.434,1.433-1.434s1.432,0.642,1.432,1.434C55.944,50.132,55.303,50.773,54.513,50.773z"/>
</svg>
