<?xml version="1.0" encoding="utf-8"?>
<!-- Generator: Adobe Illustrator 16.0.0, SVG Export Plug-In . SVG Version: 6.00 Build 0)  -->
<!DOCTYPE svg PUBLIC "-//W3C//DTD SVG 1.1//EN" "http://www.w3.org/Graphics/SVG/1.1/DTD/svg11.dtd">
<svg version="1.1" id="Layer_1" xmlns="http://www.w3.org/2000/svg" xmlns:xlink="http://www.w3.org/1999/xlink" x="0px" y="0px"
	 width="100px" height="100px" viewBox="0 0 100 100" style="enable-background:new 0 0 100 100;" xml:space="preserve">
<g>
	<path d="M39.064,51.749l-6.871-19.72c0,0-0.692-1.386-2.064-1.386h-6c0,0-1.948,0.01-5.858,0c-3.187-0.008-3.167,2.68-3.167,2.68
		l-1.202,20.519c0,0.99,0.804,1.792,1.794,1.792c0.991,0,1.795-0.802,1.795-1.792l0.977-16.133v1.714
		c-0.028,0.155-0.045,0.313-0.045,0.476v39.244c0,1.511,1.224,2.733,2.733,2.733s2.733-1.223,2.733-2.733V55.634h0.758v23.509
		c0,1.511,1.224,2.733,2.732,2.733c1.511,0,2.734-1.223,2.734-2.733l0.016-41.633l5.392,15.475c0.341,0.98,1.41,1.495,2.389,1.154
		S39.404,52.729,39.064,51.749z"/>
</g>
<g>
	<circle cx="24.146" cy="23.962" r="5.132"/>
</g>
<g>
	<circle cx="71.517" cy="23.869" r="5.131"/>
</g>
<g>
	<path d="M59.936,50.819c-0.57-0.627-1.515-0.695-2.113-0.155l-6.959,6.317H44.97l-6.959-6.317c-0.599-0.54-1.543-0.472-2.113,0.155
		c-0.568,0.627-0.547,1.574,0.05,2.117l8.072,7.326v19.491c0,0.932,0.755,1.686,1.687,1.686c0.93,0,1.685-0.754,1.685-1.686v-7.361
		h1.052v7.361c0,0.932,0.754,1.686,1.685,1.686c0.932,0,1.687-0.754,1.687-1.686V60.263l8.071-7.326
		C60.482,52.394,60.504,51.446,59.936,50.819z M47.939,55.778c1.921,0,3.479-1.529,3.479-3.417c0-1.886-1.559-3.417-3.479-3.417
		c-1.923,0-3.481,1.531-3.481,3.417C44.458,54.249,46.017,55.778,47.939,55.778z"/>
</g>
<g>
	<path d="M86.612,51.749l-6.872-19.72c0,0-0.692-1.386-2.064-1.386H65.359c-1.373,0-2.065,1.386-2.065,1.386l-6.87,19.72
		c-0.341,0.98,0.176,2.049,1.154,2.39s2.049-0.174,2.389-1.154l5.393-15.475v1.874l-6.509,19.811h6.938v19.948
		c0,1.511,1.224,2.733,2.734,2.733c1.51,0,2.733-1.223,2.733-2.733V59.194h0.521v19.948c0,1.511,1.224,2.733,2.733,2.733
		c1.511,0,2.734-1.223,2.734-2.733V59.194h6.938l-6.508-19.811V37.51l5.391,15.475c0.342,0.98,1.411,1.495,2.39,1.154
		S86.952,52.729,86.612,51.749z"/>
</g>
</svg>
