<?xml version="1.0" encoding="utf-8"?>
<!-- Generator: Adobe Illustrator 16.0.0, SVG Export Plug-In . SVG Version: 6.00 Build 0)  -->
<!DOCTYPE svg PUBLIC "-//W3C//DTD SVG 1.1//EN" "http://www.w3.org/Graphics/SVG/1.1/DTD/svg11.dtd">
<svg version="1.1" id="Layer_1" xmlns="http://www.w3.org/2000/svg" xmlns:xlink="http://www.w3.org/1999/xlink" x="0px" y="0px"
	 width="100px" height="100px" viewBox="0 0 100 100" style="enable-background:new 0 0 100 100;" xml:space="preserve">
<g>
	<g>
		<path d="M61.92,70.746H25.541c-1.51,0-2.737-1.228-2.737-2.736V25.402l9.653-9.653H61.92c1.507,0,2.734,1.228,2.734,2.736V68.01
			C64.654,69.519,63.427,70.746,61.92,70.746L61.92,70.746z M24.413,26.068V68.01c0,0.621,0.505,1.127,1.128,1.127H61.92
			c0.62,0,1.125-0.506,1.125-1.127V18.485c0-0.622-0.505-1.126-1.125-1.126H33.123L24.413,26.068L24.413,26.068z"/>
	</g>
</g>
<g>
	<path d="M68.063,22.341h-3.926v1.609h3.926c0.622,0,1.127,0.505,1.127,1.127v49.524c0,0.621-0.505,1.127-1.127,1.127H31.684
		c-0.621,0-1.127-0.506-1.127-1.127v-4.712h-1.609v4.712c0,1.51,1.229,2.737,2.736,2.737h36.379c1.509,0,2.737-1.228,2.737-2.737
		V25.077C70.8,23.568,69.571,22.341,68.063,22.341z"/>
</g>
<g>
	<path d="M74.207,28.931h-3.926v1.61h3.926c0.622,0,1.127,0.506,1.127,1.126v49.525c0,0.621-0.505,1.126-1.127,1.126H37.828
		c-0.62,0-1.127-0.505-1.127-1.126v-4.713h-1.608v4.713c0,1.509,1.228,2.736,2.735,2.736h36.379c1.51,0,2.737-1.228,2.737-2.736
		V31.667C76.944,30.158,75.717,28.931,74.207,28.931z"/>
</g>
<g>
	<g>
		<path d="M31.53,27.271h-7.249v-1.61h7.249c0.621,0,1.127-0.505,1.127-1.126v-7.249h1.609v7.249
			C34.267,26.043,33.039,27.271,31.53,27.271L31.53,27.271z"/>
	</g>
</g>
<g>
	<g>
		<path d="M60.286,37.352c0,0.654-0.557,1.188-1.246,1.188H28.666c-0.688,0-1.246-0.533-1.246-1.188l0,0
			c0-0.657,0.559-1.189,1.246-1.189H59.04C59.729,36.162,60.286,36.694,60.286,37.352L60.286,37.352z"/>
	</g>
</g>
<g>
	<g>
		<path d="M60.286,43.942c0,0.657-0.557,1.188-1.246,1.188H28.666c-0.688,0-1.246-0.53-1.246-1.188l0,0
			c0-0.656,0.559-1.188,1.246-1.188H59.04C59.729,42.755,60.286,43.286,60.286,43.942L60.286,43.942z"/>
	</g>
</g>
<g>
	<g>
		<path d="M60.286,57.127c0,0.655-0.557,1.188-1.246,1.188H28.666c-0.688,0-1.246-0.532-1.246-1.188l0,0
			c0-0.657,0.559-1.189,1.246-1.189H59.04C59.729,55.938,60.286,56.47,60.286,57.127L60.286,57.127z"/>
	</g>
</g>
<g>
	<g>
		<path d="M60.286,63.719c0,0.657-0.557,1.188-1.246,1.188H28.666c-0.688,0-1.246-0.53-1.246-1.188l0,0
			c0-0.656,0.559-1.188,1.246-1.188H59.04C59.729,62.53,60.286,63.063,60.286,63.719L60.286,63.719z"/>
	</g>
</g>
<g>
	<g>
		<path d="M60.286,50.534c0,0.657-0.557,1.188-1.246,1.188H28.666c-0.688,0-1.246-0.53-1.246-1.188l0,0
			c0-0.655,0.559-1.188,1.246-1.188H59.04C59.729,49.347,60.286,49.879,60.286,50.534L60.286,50.534z"/>
	</g>
</g>
<g>
	<g>
		<g>
			<path d="M48.159,28.168l-0.294,0.868c-0.095,0.289-0.223,0.509-0.383,0.66c-0.159,0.151-0.346,0.229-0.559,0.229
				c-0.271,0-0.496-0.089-0.672-0.27c-0.175-0.179-0.264-0.405-0.264-0.677c0-0.11,0.009-0.213,0.024-0.309
				c0.016-0.095,0.039-0.182,0.071-0.26l2.242-6.089c0.163-0.438,0.363-0.759,0.606-0.964c0.242-0.205,0.542-0.308,0.896-0.308
				c0.335,0,0.626,0.098,0.873,0.292c0.247,0.196,0.437,0.479,0.57,0.85l2.184,6.189c0.044,0.13,0.075,0.247,0.098,0.35
				c0.022,0.102,0.033,0.192,0.033,0.272c0,0.271-0.091,0.493-0.271,0.666c-0.183,0.171-0.415,0.257-0.699,0.257
				c-0.252,0-0.462-0.079-0.631-0.236c-0.167-0.158-0.301-0.399-0.398-0.723l-0.242-0.798H48.159z M48.717,26.356h2.058
				l-0.991-3.195L48.717,26.356z"/>
		</g>
	</g>
	<g>
		<g>
			<path d="M59.331,26.006c0,0.362-0.292,0.655-0.655,0.655h-4.413c-0.361,0-0.653-0.293-0.653-0.655v-0.227
				c0-0.361,0.292-0.655,0.653-0.655h4.413c0.363,0,0.655,0.294,0.655,0.655V26.006z"/>
		</g>
		<g>
			<path d="M56.584,23.032c0.361,0,0.653,0.292,0.653,0.654v4.415c0,0.36-0.292,0.653-0.653,0.653h-0.228
				c-0.362,0-0.656-0.293-0.656-0.653v-4.415c0-0.362,0.294-0.654,0.656-0.654H56.584z"/>
		</g>
	</g>
</g>
</svg>
