<?xml version="1.0" encoding="utf-8"?>
<!-- Generator: Adobe Illustrator 16.0.0, SVG Export Plug-In . SVG Version: 6.00 Build 0)  -->
<!DOCTYPE svg PUBLIC "-//W3C//DTD SVG 1.1//EN" "http://www.w3.org/Graphics/SVG/1.1/DTD/svg11.dtd">
<svg version="1.1" id="Layer_1" xmlns="http://www.w3.org/2000/svg" xmlns:xlink="http://www.w3.org/1999/xlink" x="0px" y="0px"
	 width="100px" height="100px" viewBox="0 0 100 100" style="enable-background:new 0 0 100 100;" xml:space="preserve">
<g>
	<line x1="77.667" y1="28.612" x2="77.667" y2="28.612"/>
</g>
<g>
	<g>
		<path d="M57.008,68.315c1.67-1.857,1.824-4.454,0.342-5.788l-0.826-0.742c0.821-0.267,1.627-0.772,2.289-1.511
			c1.671-1.856,1.823-4.453,0.342-5.787l-11.057-9.945c0.1-0.096,0.197-0.194,0.29-0.297c0.798-0.888,1.217-1.768,1.248-2.614
			c0.04-1.149-0.669-1.745-0.725-1.787c-0.003-0.003-6.48-5.83-14.073-12.63c-2.495-2.235-5.234-3.035-8.139-2.375
			c-4.419,1.003-7.623,5.035-8.048,5.592c-0.631,0.678-8.109,8.698-10.824,11.718c-2.714,3.017-1.843,5.534-1.005,6.442
			l28.937,26.031c1.482,1.334,4.049,0.908,5.719-0.949c0.663-0.737,1.083-1.591,1.26-2.436l3.037,2.731
			c1.482,1.333,4.047,0.907,5.718-0.951c0.819-0.911,1.271-1.997,1.347-3.025C54.211,70.218,55.83,69.624,57.008,68.315z
			 M47.028,72.572l-5.211-4.688l-13.5-12.144c-0.307-0.277-0.838-0.188-1.184,0.196c-0.348,0.386-0.378,0.923-0.071,1.2l13.5,12.144
			c0.868,0.78,0.778,2.301-0.2,3.39c-0.979,1.088-2.481,1.338-3.35,0.556L8.141,47.257c-0.161-0.188-1.344-1.725,0.798-4.105
			c2.808-3.122,10.758-11.646,10.838-11.732l0.045-0.049l0.04-0.053c0.029-0.04,2.933-3.917,6.836-4.803
			c2.404-0.546,4.721,0.159,6.884,2.096c7.593,6.801,14.071,12.629,14.091,12.645c-0.001-0.007,0.303,0.268,0.281,0.712
			c-0.018,0.363-0.248,0.792-0.683,1.275c-0.093,0.104-0.196,0.196-0.301,0.287l-4.239-3.813c-0.309-0.276-0.839-0.188-1.186,0.196
			s-0.378,0.923-0.071,1.199l8.281,7.449c0.009,0.009,0.018,0.018,0.026,0.024l8.115,7.299c0.869,0.78,0.779,2.302-0.199,3.389
			c-0.979,1.089-2.482,1.338-3.35,0.557L38.638,45.696l-0.711-0.64c-0.308-0.276-0.838-0.188-1.185,0.197
			c-0.346,0.386-0.378,0.922-0.071,1.198l0.71,0.64l15.712,14.133l2.999,2.698c0.869,0.782,0.778,2.303-0.199,3.391
			c-0.979,1.089-2.481,1.337-3.35,0.557l-0.711-0.64l-18-16.192l-0.711-0.639c-0.308-0.277-0.838-0.189-1.185,0.197
			c-0.347,0.386-0.378,0.921-0.071,1.198l0.71,0.64l18.001,16.191c0.868,0.781,0.778,2.302-0.2,3.39
			C49.398,73.104,47.896,73.354,47.028,72.572z"/>
	</g>
	<g>
		<g>
			<path d="M92.386,42.828c-2.634-3.09-9.896-11.308-10.509-12.002c-0.41-0.568-3.504-4.684-7.896-5.804
				c-2.886-0.737-5.646-0.011-8.2,2.157c-7.767,6.591-14.162,12.043-14.15,12.036c-0.083,0.066-0.811,0.644-0.801,1.79
				c0.008,0.849,0.402,1.739,1.178,2.646c0.09,0.106,0.188,0.205,0.285,0.303l-2.569,2.19c0.393,0.328,1.046,0.823,1.5,1.189
				l2.655-2.265c0.625,0.29,1.307,0.466,2.021,0.506c1.176,0.066,2.339-0.234,2.963-0.765l5.32-4.536
				c1.788,1.84,7.004,6.523,12.009,4.435c0.39-0.164,0.502-0.658,0.254-1.107c-0.247-0.448-0.763-0.681-1.151-0.519
				c-4.938,2.062-10.553-4.407-10.608-4.473l-0.61-0.712l-6.432,5.483c-0.318,0.271-1.115,0.52-2.021,0.469
				c-0.709-0.041-1.713-0.276-2.475-1.17c-0.423-0.496-0.641-0.932-0.65-1.294c-0.01-0.444,0.307-0.702,0.321-0.719
				c0,0,6.404-5.461,14.177-12.059c2.211-1.876,4.541-2.521,6.927-1.915c3.864,0.979,6.69,4.946,6.718,4.984l0.038,0.055
				l0.044,0.051c0.078,0.087,7.801,8.82,10.523,12.016c2.051,2.406,0.887,3.901,0.688,4.126L62.381,73.121
				c-0.889,0.757-2.385,0.469-3.334-0.646s-0.998-2.636-0.109-3.394L72.758,57.3c0.314-0.269,0.297-0.806-0.039-1.199
				c-0.336-0.396-0.863-0.498-1.18-0.229L57.72,67.652l-0.546,0.467c-0.055,0.066-0.107,0.135-0.166,0.198
				c-0.399,0.445-0.854,0.8-1.328,1.075l-3.294,2.807c-0.145,0.124-0.311,0.21-0.481,0.279c-0.129,0.184-0.258,0.367-0.413,0.539
				c-0.4,0.445-0.854,0.806-1.329,1.081c1.236,0.437,2.527,0.311,3.441-0.471l3.107-2.648c0.154,0.849,0.553,1.713,1.195,2.468
				c1.621,1.901,4.175,2.396,5.692,1.103l29.601-25.235l0.02-0.02C94.082,48.407,95.019,45.916,92.386,42.828z"/>
		</g>
		<g>
			<path d="M67.368,52.453l0.728-0.622c0.315-0.268,0.298-0.805-0.039-1.198c-0.336-0.396-0.864-0.498-1.178-0.23l-0.729,0.622
				l-6.055,5.162c0.18,0.887,0.033,1.894-0.434,2.838L67.368,52.453z"/>
		</g>
		<g>
			<path d="M62.217,44.936l-0.727,0.621l-6.299,5.368l1.408,1.268l6.107-5.207l0.728-0.621c0.315-0.268,0.298-0.806-0.038-1.2
				S62.532,44.668,62.217,44.936z"/>
		</g>
	</g>
</g>
</svg>
