<?xml version="1.0" encoding="utf-8"?>
<!-- Generator: Adobe Illustrator 16.0.0, SVG Export Plug-In . SVG Version: 6.00 Build 0)  -->
<!DOCTYPE svg PUBLIC "-//W3C//DTD SVG 1.1//EN" "http://www.w3.org/Graphics/SVG/1.1/DTD/svg11.dtd">
<svg version="1.1" id="Layer_1" xmlns="http://www.w3.org/2000/svg" xmlns:xlink="http://www.w3.org/1999/xlink" x="0px" y="0px"
	 width="100px" height="100px" viewBox="0 0 100 100" style="enable-background:new 0 0 100 100;" xml:space="preserve">
<path d="M74.317,32.32c-4.754-14.377-19.579-15.105-22.52-15.105c-9.388,0.008-16.507,1.62-21.158,4.791
	c-4.231,2.885-5.643,10.169-5.643,11.869c0,1.72,0.895,7.387,1.109,8.726c-0.715,1.292-4.043,7.307-4.575,8.177
	c-0.722,1.181-0.675,2.288,0.139,3.292c0.176,0.219,0.493,0.611,3.968,1.007l-0.611,2.563c-0.061,0.246,0.001,0.508,0.163,0.703
	l0.703,0.848l-0.717,0.888c-0.251,0.313-0.225,0.772,0.048,1.067c0.025,0.027,0.624,0.69,0.624,2.162c0,0.438-0.065,0.92-0.136,1.43
	c-0.21,1.526-0.471,3.427,0.987,5.322c0.706,0.918,2.303,1.328,5.174,1.328c0,0,0,0,0.002,0c1.852,0,3.85-0.324,5.717-0.476
	c1.457-0.116,1.34-0.073,2.267-0.073c0.502,0,0.748,0.032,0.866,0.061c0.111,0.025,0.173,0.069,0.229,0.16
	c0.461,0.767-0.159,3.108-0.492,4.367c-0.179,0.671-0.319,1.202-0.358,1.579c-0.044,0.429,0.14,0.867,0.561,1.339
	c1.564,1.754,8.422,4.335,13.076,4.389h0.174c6.608,0,11.151-4.233,11.342-4.415c0.163-0.153,0.255-0.367,0.252-0.592
	c-0.051-6.207,0.347-13.247,1.101-14.285c0.127-0.173,0.437-0.504,0.796-0.885C70.498,59.262,79.913,49.243,74.317,32.32z
	 M53.436,46.516h-3.252c-0.167,0-0.302-0.135-0.302-0.302c0-0.168,0.135-0.303,0.302-0.303h3.252c0.168,0,0.303,0.135,0.303,0.303
	C53.738,46.381,53.604,46.516,53.436,46.516z M55.294,45.094h-6.97c-0.211,0-0.382-0.173-0.382-0.383
	c0-0.211,0.171-0.384,0.382-0.384h6.97c0.212,0,0.383,0.173,0.383,0.384C55.677,44.921,55.506,45.094,55.294,45.094z M55.294,43.511
	h-6.97c-0.211,0-0.382-0.172-0.382-0.383s0.171-0.382,0.382-0.382h6.97c0.212,0,0.383,0.171,0.383,0.382
	S55.506,43.511,55.294,43.511z M55.294,41.929h-6.97c-0.211,0-0.382-0.173-0.382-0.384c0-0.21,0.171-0.383,0.382-0.383h6.97
	c0.212,0,0.383,0.173,0.383,0.383C55.677,41.756,55.506,41.929,55.294,41.929z M57.32,35.093c-0.186,0.493-0.538,1.39-1.012,2.504
	c-0.557,1.312-0.614,1.838-0.622,1.967c0.065,0.16,0.033,0.301-0.063,0.447c-0.102,0.154-0.294,0.198-0.479,0.198h-6.583
	c-0.187,0-0.372-0.044-0.474-0.198c-0.097-0.146-0.128-0.287-0.07-0.447c-0.006-0.129-0.064-0.655-0.615-1.967
	c-0.474-1.114-0.826-2.011-1.019-2.504c-1.709-1.544-2.689-3.746-2.689-6.052c0-4.495,3.664-8.157,8.158-8.157
	c4.502,0,8.165,3.663,8.165,8.157C60.017,31.347,59.035,33.549,57.32,35.093z"/>
</svg>
