<?xml version="1.0" encoding="utf-8"?>
<!-- Generator: Adobe Illustrator 16.0.0, SVG Export Plug-In . SVG Version: 6.00 Build 0)  -->
<!DOCTYPE svg PUBLIC "-//W3C//DTD SVG 1.1//EN" "http://www.w3.org/Graphics/SVG/1.1/DTD/svg11.dtd">
<svg version="1.1" id="Layer_1" xmlns="http://www.w3.org/2000/svg" xmlns:xlink="http://www.w3.org/1999/xlink" x="0px" y="0px"
	 width="100px" height="100px" viewBox="0 0 100 100" style="enable-background:new 0 0 100 100;" xml:space="preserve">
<g>
	<path d="M54.057,34.504c-0.037,0-0.074-0.002-0.113-0.006l-10.238-1.116c-0.564-0.063-0.971-0.57-0.909-1.134
		s0.572-0.969,1.132-0.909l10.24,1.117c0.563,0.061,0.971,0.568,0.908,1.133C55.02,34.115,54.574,34.504,54.057,34.504
		L54.057,34.504z"/>
</g>
<g>
	<path d="M44.057,30.222c0,0-5.656-11.148-6.055-11.914c-0.398-0.768-0.239-1.728,4.369-1.117c0,0-1.087-2.771,0.153-2.979
		c2.035-0.342,9.842,0.648,9.842,0.648s1.16-0.04,0.68,1.64c-0.064,0.223-0.279,1.263-0.279,1.263s1.818,0.409,3.84,0.778
		c2.199,0.399,2.725,0.884,2.211,2.186c-0.516,1.304-4.521,10.612-4.521,10.612L44.057,30.222z"/>
</g>
<path d="M66.527,48.184C62.061,44.275,53.684,35.71,53.684,35.71l-10.611-1.303l-4.841,5.399c0,0-24.83,24.707-16.196,35.929
	c3.725,4.84,15.451,6.703,24.76,6.887c9.308,0.188,30.677-1.564,32.021-13.588C79.652,61.527,70.996,52.092,66.527,48.184z
	 M55.178,67.559c-1.285,1.385-2.959,2.191-5.02,2.43v2.076c0,0.584-0.106,1.02-0.314,1.307c-0.21,0.285-0.524,0.43-0.945,0.43
	c-0.451,0-0.775-0.135-0.97-0.398c-0.192-0.268-0.291-0.715-0.291-1.338V70.08c-1.979-0.193-3.551-0.619-4.713-1.277
	c-1.163-0.654-1.746-1.428-1.746-2.32c0-0.688,0.229-1.24,0.685-1.66c0.455-0.42,1.069-0.631,1.838-0.631
	c0.379,0,1.175,0.191,2.383,0.568c1.21,0.379,2.229,0.57,3.061,0.57c0.717,0,1.316-0.221,1.8-0.662
	c0.48-0.441,0.722-0.99,0.722-1.645c0-0.707-0.246-1.277-0.739-1.709c-0.492-0.428-1.548-0.889-3.168-1.381
	c-2.347-0.699-3.988-1.525-4.921-2.486c-0.931-0.957-1.397-2.246-1.397-3.865c0-1.752,0.553-3.253,1.66-4.505
	c1.107-1.251,2.619-2.069,4.536-2.46v-1.567c0-0.596,0.1-1.029,0.299-1.301c0.201-0.27,0.521-0.407,0.962-0.407
	c0.46,0,0.785,0.123,0.977,0.369c0.189,0.246,0.283,0.692,0.283,1.339v1.445c1.713,0.131,3.057,0.496,4.036,1.091
	c0.98,0.593,1.469,1.333,1.469,2.214c0,0.676-0.201,1.207-0.605,1.591c-0.406,0.385-0.969,0.576-1.686,0.576
	c-0.398,0-1.049-0.131-1.951-0.391c-0.902-0.262-1.583-0.395-2.045-0.395c-0.759,0-1.363,0.178-1.815,0.531
	c-0.451,0.354-0.675,0.816-0.675,1.393c0,0.912,0.993,1.682,2.982,2.307c0.462,0.145,0.819,0.256,1.077,0.338
	c2.142,0.717,3.705,1.621,4.689,2.713c0.982,1.092,1.475,2.453,1.475,4.082C57.107,64.504,56.465,66.176,55.178,67.559z"/>
<g>
	<path d="M61.59,30.562c-0.133-0.397-0.563-0.614-0.959-0.483l-4.713,1.558c-0.135,0.043-0.24,0.131-0.326,0.231
		c0.34,0.325,0.572,0.752,0.656,1.228c0.047-0.004,0.098-0.001,0.146-0.018l4.711-1.555C61.504,31.392,61.721,30.961,61.59,30.562z"
		/>
</g>
<g>
	<path d="M61.119,33.648l-4.842-0.004c-0.002,0.025,0.002,0.051,0,0.075c-0.055,0.494-0.271,0.929-0.588,1.271
		c0.131,0.103,0.287,0.174,0.465,0.174l4.963,0.007c0.42,0,0.76-0.341,0.762-0.76C61.879,33.99,61.537,33.651,61.119,33.648z"/>
</g>
</svg>
