<?xml version="1.0" encoding="utf-8"?>
<!-- Generator: Adobe Illustrator 16.0.0, SVG Export Plug-In . SVG Version: 6.00 Build 0)  -->
<!DOCTYPE svg PUBLIC "-//W3C//DTD SVG 1.1//EN" "http://www.w3.org/Graphics/SVG/1.1/DTD/svg11.dtd">
<svg version="1.1" id="Layer_1" xmlns="http://www.w3.org/2000/svg" xmlns:xlink="http://www.w3.org/1999/xlink" x="0px" y="0px"
	 width="100px" height="100px" viewBox="0 0 100 100" style="enable-background:new 0 0 100 100;" xml:space="preserve">
<g>
	<g>
		<g>
			<path d="M78.514,27.282c-0.257-0.764-0.816-1.449-1.576-1.933c-1.327-0.847-2.902-0.83-3.779-0.033L46.603,67.019
				c1.063-0.129,2.241,0.125,3.294,0.794c1.002,0.639,1.708,1.541,2.061,2.505l26.669-41.882
				C78.678,28.071,78.646,27.681,78.514,27.282z"/>
		</g>
	</g>
	<g>
		<g>
			<path d="M81.037,18.794c-1.463-0.933-3.408-0.501-4.34,0.964l-2.354,3.694c1.063-0.128,2.243,0.125,3.295,0.796
				c0.971,0.618,1.699,1.502,2.064,2.498l2.299-3.61C82.936,21.671,82.503,19.727,81.037,18.794z"/>
		</g>
	</g>
</g>
<g>
	<g>
		<path d="M49.197,68.911c-1.217-0.772-2.63-0.813-3.534-0.205l-2.172,8.408c0,0-0.104,0.338,0.098,0.463
			c0.203,0.125,0.47-0.076,0.47-0.076l6.854-5.652C50.985,70.814,50.345,69.644,49.197,68.911z"/>
	</g>
</g>
<g>
	<path d="M64.825,83.698H20.611c-1.833,0-3.326-1.492-3.326-3.325V28.588l11.732-11.731h35.808c1.833,0,3.325,1.492,3.325,3.326
		v60.191C68.15,82.206,66.658,83.698,64.825,83.698L64.825,83.698z M19.241,29.397v50.976c0,0.754,0.615,1.369,1.37,1.369h44.214
		c0.755,0,1.368-0.615,1.368-1.369V20.182c0-0.755-0.613-1.369-1.368-1.369H29.827L19.241,29.397L19.241,29.397z"/>
</g>
<g>
	<path d="M27.892,30.859h-8.811v-1.955h8.811c0.756,0,1.369-0.615,1.369-1.369v-8.812h1.957v8.812
		C31.217,29.367,29.725,30.859,27.892,30.859L27.892,30.859z"/>
</g>
<g>
	<path d="M62.841,35.099c0,0.798-0.679,1.442-1.515,1.442H24.411c-0.837,0-1.515-0.645-1.515-1.442l0,0
		c0-0.797,0.678-1.444,1.515-1.444h36.915C62.162,33.654,62.841,34.302,62.841,35.099L62.841,35.099z"/>
</g>
<g>
	<path d="M62.841,43.089c0,0.798-0.679,1.443-1.515,1.443H24.411c-0.837,0-1.515-0.646-1.515-1.443l0,0
		c0-0.797,0.678-1.442,1.515-1.442h36.915C62.162,41.646,62.841,42.292,62.841,43.089L62.841,43.089z"/>
</g>
<g>
	<path d="M62.841,51.08c0,0.798-0.679,1.444-1.515,1.444H24.411c-0.837,0-1.515-0.646-1.515-1.444l0,0
		c0-0.798,0.678-1.444,1.515-1.444h36.915C62.162,49.636,62.841,50.282,62.841,51.08L62.841,51.08z"/>
</g>
<g>
	<path d="M48.917,59.071c0,0.799-0.677,1.443-1.515,1.443H24.411c-0.837,0-1.515-0.645-1.515-1.443l0,0
		c0-0.797,0.678-1.444,1.515-1.444h22.991C48.239,57.627,48.917,58.274,48.917,59.071L48.917,59.071z"/>
</g>
<g>
	<path d="M43.844,66.94c0,0.732-0.688,1.325-1.539,1.325H24.435c-0.85,0-1.539-0.593-1.539-1.325l0,0
		c0-0.729,0.689-1.322,1.539-1.322h17.871C43.156,65.618,43.844,66.212,43.844,66.94L43.844,66.94z"/>
</g>
<g>
	<g>
		<g>
			<path d="M78.514,27.282c-0.257-0.764-0.816-1.449-1.576-1.933c-1.327-0.847-2.902-0.83-3.779-0.033L46.603,67.019
				c1.063-0.129,2.241,0.125,3.294,0.794c1.002,0.639,1.708,1.541,2.061,2.505l26.669-41.882
				C78.678,28.071,78.646,27.681,78.514,27.282z"/>
		</g>
	</g>
	<g>
		<g>
			<path d="M81.037,18.794c-1.463-0.933-3.408-0.501-4.34,0.964l-2.354,3.694c1.063-0.128,2.243,0.125,3.295,0.796
				c0.971,0.618,1.699,1.502,2.064,2.498l2.299-3.61C82.936,21.671,82.503,19.727,81.037,18.794z"/>
		</g>
	</g>
</g>
<g>
	<g>
		<path d="M49.197,68.911c-1.217-0.772-2.63-0.813-3.534-0.205l-2.172,8.408c0,0-0.104,0.338,0.098,0.463
			c0.203,0.125,0.47-0.076,0.47-0.076l6.854-5.652C50.985,70.814,50.345,69.644,49.197,68.911z"/>
	</g>
</g>
<g>
	<g>
		<g>
			<path d="M78.514,27.282c-0.257-0.764-0.816-1.449-1.576-1.933c-1.327-0.847-2.902-0.83-3.779-0.033L46.603,67.019
				c1.063-0.129,2.241,0.125,3.294,0.794c1.002,0.639,1.708,1.541,2.061,2.505l26.669-41.882
				C78.678,28.071,78.646,27.681,78.514,27.282z"/>
		</g>
	</g>
	<g>
		<g>
			<path d="M81.037,18.794c-1.463-0.933-3.408-0.501-4.34,0.964l-2.354,3.694c1.063-0.128,2.243,0.125,3.295,0.796
				c0.971,0.618,1.699,1.502,2.064,2.498l2.299-3.61C82.936,21.671,82.503,19.727,81.037,18.794z"/>
		</g>
	</g>
</g>
<g>
	<g>
		<path d="M49.197,68.911c-1.217-0.772-2.63-0.813-3.534-0.205l-2.172,8.408c0,0-0.104,0.338,0.098,0.463
			c0.203,0.125,0.47-0.076,0.47-0.076l6.854-5.652C50.985,70.814,50.345,69.644,49.197,68.911z"/>
	</g>
</g>
</svg>
