<?xml version="1.0" encoding="utf-8"?>
<!-- Generator: Adobe Illustrator 16.0.0, SVG Export Plug-In . SVG Version: 6.00 Build 0)  -->
<!DOCTYPE svg PUBLIC "-//W3C//DTD SVG 1.1//EN" "http://www.w3.org/Graphics/SVG/1.1/DTD/svg11.dtd">
<svg version="1.1" id="Layer_1" xmlns="http://www.w3.org/2000/svg" xmlns:xlink="http://www.w3.org/1999/xlink" x="0px" y="0px"
	 width="100px" height="100px" viewBox="0 0 100 100" style="enable-background:new 0 0 100 100;" xml:space="preserve">
<g>
	<g>
		<g>
			<g>
				<g>
					<path d="M58.772,49.741c-0.729-0.058-1.505,0.165-2.179,0.628c-1.185,0.809-1.732,2.133-1.379,3.152l16.613,23.962
						c0.274-0.934,0.906-1.83,1.841-2.473c0.893-0.609,1.9-0.876,2.833-0.828L59.777,50.059
						C59.49,49.885,59.154,49.771,58.772,49.741z"/>
				</g>
			</g>
			<g>
				<g>
					<path d="M52.573,44.601c-1.305,0.894-1.638,2.673-0.744,3.976l2.252,3.286c0.271-0.935,0.904-1.83,1.842-2.472
						c0.862-0.592,1.86-0.884,2.825-0.836l-2.2-3.209C55.656,44.041,53.875,43.707,52.573,44.601z"/>
				</g>
			</g>
		</g>
		<g>
			<g>
				<path d="M74.34,75.99c-1.081,0.742-1.619,1.909-1.435,2.882l6.259,4.819c0,0,0.246,0.209,0.422,0.085
					c0.178-0.125,0.104-0.422,0.104-0.422l-2.281-7.751C76.569,75.175,75.361,75.292,74.34,75.99z"/>
			</g>
		</g>
	</g>
	<g>
		<g>
			<path d="M24.412,67.17V52.432c-0.392,0.05-0.798,0.08-1.219,0.08c-0.195,0-0.387-0.009-0.576-0.021v14.745
				c0.189,0.016,0.378,0.03,0.576,0.03C23.622,67.267,24.03,67.232,24.412,67.17z"/>
		</g>
		<g>
			<path d="M22.617,36.489v14.495c0.189,0.016,0.378,0.031,0.576,0.031c0.429,0,0.837-0.036,1.219-0.098V36.442
				c-0.372,0.045-0.757,0.069-1.153,0.069C23.041,36.512,22.827,36.503,22.617,36.489z"/>
		</g>
		<g>
			<path d="M64.827,20.483c-0.415-1.148-1.504-1.975-2.791-1.975H25.595c-1.642,0-2.978,1.338-2.978,2.983v13.49
				c0.209,0.018,0.42,0.033,0.642,0.033c0.403,0,0.789-0.032,1.153-0.088V21.492c0-0.655,0.531-1.188,1.183-1.188h36.441
				c0.653,0,1.184,0.533,1.184,1.188v49.309c0,0.654-0.53,1.188-1.184,1.188H25.595c-0.651,0-1.183-0.533-1.183-1.188v-2.118
				c-0.392,0.052-0.798,0.081-1.219,0.081c-0.195,0-0.387-0.009-0.576-0.02v2.057c0,1.141,0.651,2.123,1.594,2.625
				c0.416,1.147,1.504,1.973,2.791,1.973h36.44c1.643,0,2.978-1.339,2.978-2.984V23.107C66.42,21.964,65.771,20.98,64.827,20.483z"
				/>
		</g>
	</g>
	<g>
		<g>
			<g>
				<path d="M23.193,35.053c-3.172,0-5.657-1.532-5.657-3.488s2.485-3.487,5.657-3.487v1.495c-2.381,0-4.16,1.053-4.16,1.992
					s1.779,1.992,4.16,1.992s4.162-1.053,4.162-1.992h1.495C28.851,33.521,26.366,35.053,23.193,35.053L23.193,35.053z"/>
			</g>
		</g>
		<g>
			<g>
				<circle cx="28.112" cy="31.831" r="1.64"/>
			</g>
		</g>
	</g>
	<g>
		<g>
			<g>
				<path d="M23.193,51.25c-3.172,0-5.657-1.533-5.657-3.488c0-1.956,2.485-3.487,5.657-3.487v1.495c-2.381,0-4.16,1.051-4.16,1.992
					c0,0.94,1.779,1.991,4.16,1.991s4.162-1.051,4.162-1.991h1.495C28.851,49.717,26.366,51.25,23.193,51.25L23.193,51.25z"/>
			</g>
		</g>
		<g>
			<g>
				<circle cx="28.112" cy="48.026" r="1.64"/>
			</g>
		</g>
	</g>
	<g>
		<g>
			<g>
				<path d="M23.193,67.444c-3.172,0-5.657-1.531-5.657-3.487c0-1.955,2.485-3.487,5.657-3.487v1.496
					c-2.381,0-4.16,1.052-4.16,1.991c0,0.941,1.779,1.992,4.16,1.992s4.162-1.051,4.162-1.992h1.495
					C28.851,65.913,26.366,67.444,23.193,67.444L23.193,67.444z"/>
			</g>
		</g>
		<g>
			<g>
				<circle cx="28.112" cy="64.223" r="1.64"/>
			</g>
		</g>
	</g>
	<g>
		<path d="M53.685,36.665c0,1.189-0.965,2.153-2.154,2.153H37.054c-1.189,0-2.152-0.964-2.152-2.153v-3.714
			c0-1.189,0.963-2.153,2.152-2.153H51.53c1.189,0,2.154,0.964,2.154,2.153V36.665z"/>
	</g>
	<g>
		<path d="M79.827,73.503h-6.557c-1.627,0-2.949-1.357-2.949-3.026V18.521c0-1.669,1.322-3.027,2.949-3.027h6.557
			c1.626,0,2.949,1.358,2.949,3.027v51.955C82.776,72.146,81.453,73.503,79.827,73.503L79.827,73.503z M73.271,17.47
			c-0.537,0-0.973,0.471-0.973,1.052v51.955c0,0.579,0.436,1.051,0.973,1.051h6.557c0.537,0,0.974-0.472,0.974-1.051V18.521
			c0-0.581-0.437-1.052-0.974-1.052H73.271L73.271,17.47z"/>
	</g>
	<g>
		<path d="M81.86,22.5h-7.313c-0.364,0-0.659-0.295-0.659-0.659s0.295-0.659,0.659-0.659h7.313c0.363,0,0.658,0.295,0.658,0.659
			S82.224,22.5,81.86,22.5L81.86,22.5z"/>
	</g>
	<g>
		<path d="M81.86,27.576H76.22c-0.364,0-0.659-0.295-0.659-0.658c0-0.364,0.295-0.659,0.659-0.659h5.641
			c0.363,0,0.658,0.295,0.658,0.659C82.519,27.281,82.224,27.576,81.86,27.576L81.86,27.576z"/>
	</g>
	<g>
		<path d="M81.86,37.73H76.22c-0.364,0-0.659-0.294-0.659-0.659c0-0.363,0.295-0.659,0.659-0.659h5.641
			c0.363,0,0.658,0.296,0.658,0.659C82.519,37.437,82.224,37.73,81.86,37.73L81.86,37.73z"/>
	</g>
	<g>
		<path d="M81.86,47.884H76.22c-0.364,0-0.659-0.295-0.659-0.658c0-0.364,0.295-0.658,0.659-0.658h5.641
			c0.363,0,0.658,0.294,0.658,0.658C82.519,47.589,82.224,47.884,81.86,47.884L81.86,47.884z"/>
	</g>
	<g>
		<path d="M81.86,58.039H76.22c-0.364,0-0.659-0.296-0.659-0.659c0-0.364,0.295-0.659,0.659-0.659h5.641
			c0.363,0,0.658,0.295,0.658,0.659C82.519,57.743,82.224,58.039,81.86,58.039L81.86,58.039z"/>
	</g>
	<g>
		<path d="M81.86,68.191H76.22c-0.364,0-0.659-0.294-0.659-0.658s0.295-0.658,0.659-0.658h5.641c0.363,0,0.658,0.294,0.658,0.658
			S82.224,68.191,81.86,68.191L81.86,68.191z"/>
	</g>
	<g>
		<path d="M81.86,32.653h-7.313c-0.364,0-0.659-0.294-0.659-0.659c0-0.363,0.295-0.658,0.659-0.658h7.313
			c0.363,0,0.658,0.295,0.658,0.658C82.519,32.359,82.224,32.653,81.86,32.653L81.86,32.653z"/>
	</g>
	<g>
		<path d="M81.86,42.809h-7.313c-0.364,0-0.659-0.296-0.659-0.659c0-0.365,0.295-0.659,0.659-0.659h7.313
			c0.363,0,0.658,0.294,0.658,0.659C82.519,42.513,82.224,42.809,81.86,42.809L81.86,42.809z"/>
	</g>
	<g>
		<path d="M81.86,52.962h-7.313c-0.364,0-0.659-0.296-0.659-0.659c0-0.364,0.295-0.658,0.659-0.658h7.313
			c0.363,0,0.658,0.294,0.658,0.658C82.519,52.666,82.224,52.962,81.86,52.962L81.86,52.962z"/>
	</g>
	<g>
		<path d="M81.86,63.115h-7.313c-0.364,0-0.659-0.295-0.659-0.658c0-0.365,0.295-0.659,0.659-0.659h7.313
			c0.363,0,0.658,0.294,0.658,0.659C82.519,62.82,82.224,63.115,81.86,63.115L81.86,63.115z"/>
	</g>
</g>
</svg>
