<?xml version="1.0" encoding="utf-8"?>
<!-- Generator: Adobe Illustrator 16.0.0, SVG Export Plug-In . SVG Version: 6.00 Build 0)  -->
<!DOCTYPE svg PUBLIC "-//W3C//DTD SVG 1.1//EN" "http://www.w3.org/Graphics/SVG/1.1/DTD/svg11.dtd">
<svg version="1.1" id="Layer_1" xmlns="http://www.w3.org/2000/svg" xmlns:xlink="http://www.w3.org/1999/xlink" x="0px" y="0px"
	 width="100px" height="100px" viewBox="0 0 100 100" style="enable-background:new 0 0 100 100;" xml:space="preserve">
<path d="M74.462,32.32c-4.755-14.377-19.58-15.105-22.521-15.105c-9.387,0.008-16.506,1.62-21.158,4.791
	c-4.231,2.885-5.642,10.169-5.642,11.869c0,1.72,0.894,7.387,1.108,8.726c-0.715,1.292-4.043,7.307-4.576,8.177
	c-0.721,1.181-0.674,2.288,0.14,3.292c0.177,0.219,0.494,0.611,3.969,1.007l-0.613,2.563c-0.059,0.246,0.003,0.508,0.164,0.703
	l0.703,0.848l-0.717,0.888c-0.251,0.313-0.225,0.772,0.049,1.067c0.025,0.027,0.624,0.69,0.624,2.162c0,0.438-0.066,0.92-0.137,1.43
	c-0.21,1.526-0.471,3.427,0.987,5.322c0.706,0.918,2.302,1.328,5.175,1.328l0,0c1.853,0,3.851-0.324,5.718-0.476
	c1.458-0.116,1.34-0.073,2.268-0.073c0.502,0,0.747,0.032,0.866,0.061c0.111,0.025,0.172,0.069,0.229,0.16
	c0.461,0.767-0.159,3.108-0.492,4.367c-0.179,0.671-0.32,1.202-0.358,1.579c-0.044,0.429,0.139,0.867,0.56,1.339
	c1.565,1.754,8.423,4.335,13.076,4.389h0.174c6.608,0,11.152-4.233,11.342-4.415c0.164-0.153,0.254-0.367,0.253-0.592
	c-0.052-6.207,0.346-13.247,1.101-14.285c0.126-0.173,0.437-0.504,0.796-0.885C70.643,59.262,80.058,49.243,74.462,32.32z
	 M69.367,40.979c-0.044,2.572-1.441,5.512-3.844,6.603c-1.967,0.893-4.761,1.14-7.663,0.677c-2.222-0.354-4.323-1.086-5.981-2.077
	c-0.922,0.108-2.138,0.163-3.395-0.037c-1.117-0.18-2.12-1.343-2.981-1.868c-1.38-0.846-2.659-1.754-3.463-2.348
	c-0.553-0.016-1.238-0.06-1.917-0.17c-1.381-0.22-2.428-0.654-3.201-1.331c-1.932-1.69-2.766-3.978-2.292-6.203
	c-0.637-1.954-0.493-3.768,0.419-5.146c0.361-0.545,0.979-1.225,1.998-1.7c0.193-1.074,0.6-2.041,1.202-2.83
	c1.008-1.321,2.503-2.132,4.324-2.344c2.011-0.229,3.846,0.12,5.359,1.011c1.287-0.709,3.153-1.332,5.633-1.19
	c2.17,0.129,4.041,0.888,5.491,2.197c1.62-0.511,3.446-0.277,5.229,0.698c2.843,1.562,3.783,3.998,4.08,5.698
	c1.642,1,2.717,2.693,2.991,4.757C71.649,37.572,70.93,39.574,69.367,40.979z"/>
<path d="M68.586,34.087c-0.524-2.881-3.082-2.882-3.082-2.882s0.396-3.467-2.838-5.046c-3.231-1.577-4.408,1.148-4.408,1.148
	s-1.115-3.188-5.163-3.246c-4.046-0.059-5.547,2.456-5.547,2.456s-1.279-2.428-4.972-1.841c-3.692,0.586-2.671,4.73-2.671,4.73
	c-4.49,0.094-1.998,4.409-1.998,4.409s-1.122,2.086,1.255,3.969c1.045,0.83,4.16,0.538,4.16,0.538s2.014,1.427,4.222,2.636
	s5.519,0.226,5.519,0.226c2.953,2.151,8.848,2.824,11.789,1.344c2.941-1.478,1.654-4.636,1.654-4.636S69.111,36.969,68.586,34.087z
	 M54.182,38.37c-0.25,0.251-0.546,0.376-0.891,0.376c-0.351,0-0.65-0.125-0.901-0.376s-0.376-0.551-0.376-0.9
	c0-0.356,0.124-0.655,0.372-0.898c0.249-0.243,0.55-0.366,0.905-0.366c0.35,0,0.647,0.124,0.895,0.37
	c0.245,0.245,0.367,0.544,0.367,0.895C54.553,37.819,54.43,38.119,54.182,38.37z M56.264,33.113
	c-0.459,0.549-1.076,0.896-1.853,1.042v0.043c0,0.444-0.101,0.793-0.305,1.046c-0.204,0.254-0.48,0.38-0.83,0.38
	s-0.622-0.114-0.815-0.344c-0.194-0.229-0.291-0.557-0.291-0.982v-0.916c0-0.269,0.036-0.471,0.11-0.605
	c0.072-0.135,0.201-0.242,0.386-0.323c0.095-0.042,0.257-0.088,0.486-0.138s0.4-0.101,0.514-0.153
	c0.275-0.104,0.48-0.253,0.614-0.446c0.135-0.194,0.202-0.434,0.202-0.717c0-0.26-0.099-0.485-0.297-0.675
	c-0.2-0.188-0.438-0.283-0.718-0.283c-0.25,0-0.478,0.051-0.681,0.153c-0.203,0.102-0.423,0.279-0.66,0.535
	c-0.028,0.028-0.072,0.075-0.135,0.143c-0.393,0.435-0.74,0.652-1.043,0.652c-0.269,0-0.494-0.1-0.674-0.299s-0.27-0.451-0.27-0.759
	c0-0.662,0.343-1.262,1.028-1.799c0.686-0.536,1.497-0.804,2.434-0.804c0.998,0,1.828,0.311,2.491,0.932
	c0.661,0.622,0.992,1.392,0.992,2.31C56.951,31.895,56.721,32.563,56.264,33.113z"/>
</svg>
