<?xml version="1.0" encoding="utf-8"?>
<!-- Generator: Adobe Illustrator 16.0.0, SVG Export Plug-In . SVG Version: 6.00 Build 0)  -->
<!DOCTYPE svg PUBLIC "-//W3C//DTD SVG 1.1//EN" "http://www.w3.org/Graphics/SVG/1.1/DTD/svg11.dtd">
<svg version="1.1" id="Layer_1" xmlns="http://www.w3.org/2000/svg" xmlns:xlink="http://www.w3.org/1999/xlink" x="0px" y="0px"
	 width="100px" height="100px" viewBox="0 0 100 100" style="enable-background:new 0 0 100 100;" xml:space="preserve">
<g>
	<g>
		<rect x="72.783" y="33.645" width="5.649" height="2.694"/>
	</g>
	<g>
		<g>
			<rect x="72.783" y="38.331" width="5.649" height="2.694"/>
		</g>
	</g>
</g>
<g>
	<path d="M87.987,36.255h-0.347v0.932h0.347c0.185,0,0.323-0.038,0.415-0.118c0.093-0.078,0.139-0.194,0.139-0.352
		s-0.045-0.274-0.135-0.35S88.177,36.255,87.987,36.255z"/>
	<path d="M91.281,37.019l-3.52-6.15c-0.095-0.167-0.27-0.269-0.46-0.269h-7.038c-0.189,0-0.363,0.102-0.459,0.269l-3.52,6.15
		c-0.094,0.166-0.094,0.371,0,0.537l3.52,6.15c0.096,0.166,0.27,0.268,0.459,0.268h7.038c0.19,0,0.365-0.102,0.46-0.268l3.52-6.15
		C91.375,37.39,91.375,37.185,91.281,37.019z M80.295,38.822c-0.253,0.22-0.585,0.33-0.996,0.33c-0.317,0-0.588-0.058-0.813-0.171
		c-0.223-0.113-0.336-0.247-0.336-0.4c0-0.108,0.037-0.194,0.109-0.262s0.17-0.101,0.29-0.101c0.062,0,0.187,0.031,0.378,0.091
		s0.352,0.091,0.484,0.091c0.114,0,0.209-0.036,0.285-0.106c0.076-0.068,0.114-0.156,0.114-0.259c0-0.112-0.038-0.203-0.117-0.271
		c-0.077-0.069-0.244-0.142-0.501-0.221c-0.373-0.11-0.631-0.241-0.779-0.392c-0.148-0.152-0.221-0.355-0.221-0.612
		c0-0.331,0.117-0.6,0.356-0.81c0.237-0.209,0.546-0.314,0.928-0.314c0.281,0,0.513,0.052,0.694,0.15
		c0.182,0.1,0.272,0.224,0.272,0.374c0,0.107-0.032,0.191-0.097,0.252c-0.063,0.062-0.152,0.091-0.266,0.091
		c-0.063,0-0.166-0.02-0.309-0.062c-0.145-0.042-0.252-0.063-0.326-0.063c-0.119,0-0.214,0.029-0.285,0.084
		c-0.071,0.056-0.107,0.13-0.107,0.222c0,0.144,0.158,0.266,0.472,0.364c0.073,0.022,0.13,0.04,0.171,0.054
		c0.339,0.113,0.587,0.257,0.742,0.429c0.156,0.174,0.234,0.39,0.234,0.647C80.674,38.313,80.547,38.602,80.295,38.822z
		 M82.527,36.264h-0.299v2.265c0,0.193-0.033,0.337-0.099,0.432c-0.067,0.093-0.169,0.142-0.306,0.142s-0.237-0.049-0.304-0.142
		c-0.066-0.095-0.101-0.238-0.101-0.432v-2.265h-0.297c-0.194,0-0.34-0.03-0.434-0.092c-0.094-0.063-0.141-0.155-0.141-0.28
		c0-0.128,0.048-0.223,0.143-0.286c0.095-0.063,0.238-0.094,0.432-0.094h1.404c0.193,0,0.336,0.031,0.432,0.094
		c0.096,0.063,0.145,0.158,0.145,0.286c0,0.125-0.049,0.218-0.144,0.28C82.865,36.233,82.721,36.264,82.527,36.264z M86.022,38.646
		c-0.321,0.344-0.742,0.516-1.265,0.516s-0.943-0.172-1.262-0.516c-0.32-0.345-0.479-0.797-0.479-1.359
		c0-0.56,0.16-1.012,0.481-1.356c0.32-0.345,0.74-0.518,1.26-0.518c0.521,0,0.943,0.173,1.265,0.519s0.481,0.797,0.481,1.355
		C86.504,37.849,86.344,38.301,86.022,38.646z M89.089,37.602c-0.218,0.213-0.52,0.318-0.905,0.318h-0.543v0.608
		c0,0.193-0.033,0.337-0.1,0.432c-0.066,0.093-0.168,0.142-0.305,0.142s-0.237-0.049-0.304-0.142
		c-0.067-0.095-0.101-0.238-0.101-0.432v-2.449c0-0.216,0.041-0.364,0.125-0.446c0.082-0.08,0.227-0.121,0.432-0.121h0.729
		c0.4,0,0.718,0.108,0.948,0.325c0.232,0.217,0.349,0.511,0.349,0.88C89.415,37.093,89.307,37.389,89.089,37.602z"/>
	<path d="M84.758,36.18c-0.263,0-0.473,0.101-0.627,0.302c-0.156,0.2-0.235,0.473-0.235,0.815c0,0.331,0.079,0.597,0.235,0.795
		c0.158,0.197,0.367,0.297,0.627,0.297s0.469-0.1,0.625-0.297c0.158-0.198,0.236-0.464,0.236-0.795c0-0.343-0.076-0.615-0.234-0.815
		C85.229,36.28,85.021,36.18,84.758,36.18z"/>
</g>
<g>
	<g>
		<path d="M41.585,74.728c0,1.607-1.304,2.91-2.911,2.91h-1.728c-1.608,0-2.911-1.303-2.911-2.91v-6.294
			c0-1.608,1.303-2.912,2.911-2.912h1.728c1.607,0,2.911,1.304,2.911,2.912V74.728z"/>
	</g>
	<g>
		<path d="M71.877,74.728c0,1.607-1.304,2.91-2.91,2.91h-1.728c-1.606,0-2.911-1.303-2.911-2.91v-6.294
			c0-1.608,1.305-2.912,2.911-2.912h1.728c1.606,0,2.91,1.304,2.91,2.912V74.728z"/>
	</g>
</g>
<g>
	<g>
		<path d="M65.775,36.47c0,1.722-1.471,3.116-3.283,3.116l0,0c-1.815,0-3.285-1.395-3.285-3.116l0,0c0-1.722,1.47-3.117,3.285-3.117
			l0,0C64.305,33.353,65.775,34.748,65.775,36.47L65.775,36.47z"/>
	</g>
	<g>
		<path d="M66.214,49.223c0,1.791-1.532,3.243-3.421,3.243h-0.604c-1.889,0-3.421-1.452-3.421-3.243v-5.977
			c0-1.792,1.532-3.245,3.421-3.245h0.604c1.889,0,3.421,1.453,3.421,3.245V49.223z"/>
	</g>
</g>
<g>
	<path d="M54.381,45.146c0,0.984-0.637,1.784-1.424,1.784l0,0c-0.787,0-1.425-0.8-1.425-1.784V31.413
		c0-0.984,0.638-1.781,1.425-1.781l0,0c0.787,0,1.424,0.797,1.424,1.781V45.146z"/>
</g>
<path d="M74.407,45.54h-0.597V25.861c0-1.259-0.973-2.28-2.177-2.28c0,0-6.346-2.265-18.396-2.265
	c-12.052,0-19.236,2.265-19.236,2.265c-1.205,0-2.178,1.021-2.178,2.28V45.54h-0.317c-1.608,0-2.912,1.266-2.912,2.828v17.803
	c0,1.563,1.304,2.831,2.912,2.831h2.495h37.633h2.773c1.609,0,2.911-1.268,2.911-2.831V48.368
	C77.318,46.806,76.017,45.54,74.407,45.54z M69.564,25.218c0.85,0,1.539,0.69,1.539,1.54c0,0.852-0.689,1.541-1.539,1.541
	c-0.852,0-1.54-0.689-1.54-1.541C68.024,25.908,68.713,25.218,69.564,25.218z M65.765,25.218c0.85,0,1.54,0.69,1.54,1.54
	c0,0.852-0.69,1.541-1.54,1.541c-0.851,0-1.54-0.689-1.54-1.541C64.225,25.908,64.914,25.218,65.765,25.218z M69.489,31.388
	c0.804,0,1.456,0.594,1.456,1.327v10.82c0,0.731-0.652,1.326-1.456,1.326H36.424c-0.803,0-1.456-0.595-1.456-1.326v-10.82
	c0-0.733,0.653-1.327,1.456-1.327H69.489z M39.87,25.218c0.851,0,1.54,0.69,1.54,1.54c0,0.852-0.689,1.541-1.54,1.541
	c-0.852,0-1.541-0.689-1.541-1.541C38.329,25.908,39.018,25.218,39.87,25.218z M36.07,25.218c0.851,0,1.54,0.69,1.54,1.54
	c0,0.852-0.689,1.541-1.54,1.541s-1.541-0.689-1.541-1.541C34.529,25.908,35.219,25.218,36.07,25.218z M35.827,62.906h-2.662
	c-0.825,0-1.493-0.668-1.493-1.493c0-0.824,0.668-1.492,1.493-1.492h2.662c0.825,0,1.493,0.668,1.493,1.492
	C37.319,62.238,36.651,62.906,35.827,62.906z M34.495,58.113c-1.561,0-2.823-1.264-2.823-2.823c0-1.561,1.263-2.824,2.823-2.824
	c1.562,0,2.824,1.264,2.824,2.824C37.319,56.85,36.057,58.113,34.495,58.113z M64.243,63.06H41.39c-0.385,0-0.698-0.313-0.698-0.697
	c0-0.387,0.313-0.7,0.698-0.7h22.853c0.386,0,0.698,0.313,0.698,0.7C64.941,62.747,64.629,63.06,64.243,63.06z M64.243,60.228H41.39
	c-0.385,0-0.698-0.312-0.698-0.697s0.313-0.7,0.698-0.7h22.853c0.386,0,0.698,0.314,0.698,0.7S64.629,60.228,64.243,60.228z
	 M64.243,57.396H41.39c-0.385,0-0.698-0.312-0.698-0.698c0-0.385,0.313-0.699,0.698-0.699h22.853c0.386,0,0.698,0.314,0.698,0.699
	C64.941,57.085,64.629,57.396,64.243,57.396z M64.243,54.565H41.39c-0.385,0-0.698-0.313-0.698-0.698
	c0-0.388,0.313-0.699,0.698-0.699h22.853c0.386,0,0.698,0.312,0.698,0.699C64.941,54.253,64.629,54.565,64.243,54.565z
	 M72.47,62.906h-2.663c-0.824,0-1.492-0.668-1.492-1.493c0-0.824,0.668-1.492,1.492-1.492h2.663c0.823,0,1.491,0.668,1.491,1.492
	C73.961,62.238,73.293,62.906,72.47,62.906z M71.137,58.113c-1.559,0-2.822-1.264-2.822-2.823c0-1.561,1.264-2.824,2.822-2.824
	c1.563,0,2.824,1.264,2.824,2.824C73.961,56.85,72.699,58.113,71.137,58.113z"/>
<g>
	<g>
		<path d="M21.885,75.555c0.143,0.983-0.54,1.896-1.524,2.038l-0.185,0.026c-0.985,0.143-1.896-0.54-2.04-1.524l-1.507-10.445
			c-0.143-0.984,0.54-1.897,1.524-2.039l0.185-0.026c0.984-0.143,1.897,0.541,2.039,1.524L21.885,75.555z"/>
	</g>
	<g>
		<path d="M14.069,76.374c-0.422,0.9-1.494,1.287-2.394,0.867l-0.17-0.081c-0.899-0.423-1.286-1.493-0.865-2.395l4.481-9.555
			c0.422-0.9,1.493-1.289,2.395-0.864l0.169,0.077c0.9,0.422,1.287,1.494,0.865,2.394L14.069,76.374z"/>
	</g>
	<g>
		<path d="M8.789,64.424c0.54,0.692,1.538,0.817,2.23,0.278l5.174-4.023c0.691-0.538,0.816-1.537,0.278-2.229l0,0
			c-0.539-0.694-1.538-0.818-2.229-0.279l-5.174,4.023C8.374,62.732,8.25,63.731,8.789,64.424L8.789,64.424z"/>
	</g>
	<g>
		<path d="M14.489,57.928c0.641-0.448,6.56-0.549,6.917-0.549h0.244c0.994,0,1.799,0.806,1.799,1.801v3.932
			c0,0.994-0.805,1.8-1.799,1.8h-0.244c-0.277,0-0.537-0.067-0.772-0.18c-0.031,1.021-0.06,1.741-0.06,1.741L15,67.982l-1.024-8.838
			C13.977,59.145,13.847,58.377,14.489,57.928z"/>
	</g>
	<g>
		<circle cx="17.594" cy="54.136" r="2.998"/>
	</g>
</g>
</svg>
