<?xml version="1.0" encoding="utf-8"?>
<!-- Generator: Adobe Illustrator 16.0.0, SVG Export Plug-In . SVG Version: 6.00 Build 0)  -->
<!DOCTYPE svg PUBLIC "-//W3C//DTD SVG 1.1//EN" "http://www.w3.org/Graphics/SVG/1.1/DTD/svg11.dtd">
<svg version="1.1" id="Layer_1" xmlns="http://www.w3.org/2000/svg" xmlns:xlink="http://www.w3.org/1999/xlink" x="0px" y="0px"
	 width="100px" height="100px" viewBox="0 0 100 100" style="enable-background:new 0 0 100 100;" xml:space="preserve">
<g>
	<g>
		<path d="M24.486,75.826c-0.143,0.984,0.54,1.896,1.524,2.038l0.184,0.027c0.986,0.143,1.897-0.54,2.04-1.524l1.507-10.446
			c0.142-0.984-0.539-1.896-1.524-2.038l-0.185-0.026c-0.984-0.143-1.896,0.541-2.039,1.523L24.486,75.826z"/>
	</g>
	<g>
		<path d="M32.302,76.647c0.422,0.898,1.494,1.287,2.394,0.865l0.17-0.08c0.9-0.422,1.287-1.493,0.865-2.394l-4.481-9.556
			c-0.422-0.9-1.493-1.288-2.394-0.865l-0.169,0.079c-0.9,0.422-1.288,1.492-0.866,2.393L32.302,76.647z"/>
	</g>
	<g>
		<path d="M37.582,64.696c-0.539,0.693-1.538,0.816-2.229,0.279l-5.175-4.024c-0.692-0.538-0.817-1.537-0.278-2.229l0,0
			c0.539-0.693,1.537-0.817,2.229-0.278l5.174,4.021C37.996,63.005,38.12,64.005,37.582,64.696L37.582,64.696z"/>
	</g>
	<g>
		<path d="M31.882,58.2c-0.642-0.448-6.56-0.549-6.917-0.549h-0.243c-0.994,0-1.799,0.807-1.799,1.801v3.931
			c0,0.996,0.805,1.801,1.799,1.801h0.243c0.278,0,0.537-0.067,0.771-0.18c0.032,1.021,0.06,1.741,0.06,1.741l5.574,1.511
			l1.023-8.84C32.394,59.416,32.523,58.648,31.882,58.2z"/>
	</g>
	<g>
		<circle cx="28.777" cy="54.408" r="2.998"/>
	</g>
	<g>
		<g>
			<path d="M7.506,75.826c-0.142,0.984,0.539,1.896,1.524,2.038l0.185,0.027c0.984,0.143,1.896-0.54,2.039-1.524l1.507-10.446
				c0.143-0.984-0.538-1.896-1.523-2.038l-0.185-0.026c-0.984-0.143-1.897,0.541-2.039,1.523L7.506,75.826z"/>
		</g>
		<g>
			<path d="M15.322,76.647c0.422,0.898,1.493,1.287,2.393,0.865l0.171-0.08c0.899-0.422,1.287-1.493,0.864-2.394l-4.48-9.556
				c-0.422-0.9-1.493-1.288-2.394-0.865l-0.17,0.079c-0.9,0.422-1.287,1.492-0.865,2.393L15.322,76.647z"/>
		</g>
		<g>
			<path d="M20.603,64.696c-0.54,0.693-1.539,0.816-2.23,0.279l-5.175-4.024c-0.691-0.538-0.817-1.537-0.278-2.229l0,0
				c0.539-0.693,1.537-0.817,2.23-0.278l5.174,4.021C21.016,63.005,21.14,64.005,20.603,64.696L20.603,64.696z"/>
		</g>
		<g>
			<path d="M14.902,58.2c-0.642-0.448-6.561-0.549-6.917-0.549H7.742c-0.994,0-1.8,0.807-1.8,1.801v3.931
				c0,0.996,0.806,1.801,1.8,1.801h0.243c0.277,0,0.537-0.067,0.771-0.18c0.031,1.021,0.06,1.741,0.06,1.741l5.574,1.511l1.023-8.84
				C15.414,59.416,15.544,58.648,14.902,58.2z"/>
		</g>
		<g>
			<circle cx="11.797" cy="54.408" r="2.998"/>
		</g>
	</g>
	<g>
		<g>
			<path d="M55.338,74.776c0,1.608-1.305,2.911-2.911,2.911h-1.728c-1.606,0-2.912-1.303-2.912-2.911v-6.294
				c0-1.608,1.306-2.911,2.912-2.911h1.728c1.606,0,2.911,1.303,2.911,2.911V74.776z"/>
		</g>
		<g>
			<path d="M85.63,74.776c0,1.608-1.304,2.911-2.912,2.911h-1.726c-1.607,0-2.912-1.303-2.912-2.911v-6.294
				c0-1.608,1.305-2.911,2.912-2.911h1.726c1.608,0,2.912,1.303,2.912,2.911V74.776z"/>
		</g>
	</g>
	<g>
		<g>
			<path d="M79.527,36.52c0,1.721-1.47,3.115-3.283,3.115l0,0c-1.814,0-3.285-1.395-3.285-3.115l0,0
				c0-1.723,1.471-3.118,3.285-3.118l0,0C78.058,33.401,79.527,34.797,79.527,36.52L79.527,36.52z"/>
		</g>
		<g>
			<path d="M79.965,49.271c0,1.791-1.53,3.244-3.419,3.244H75.94c-1.889,0-3.421-1.453-3.421-3.244v-5.976
				c0-1.793,1.532-3.244,3.421-3.244h0.605c1.889,0,3.419,1.451,3.419,3.244V49.271z"/>
		</g>
	</g>
	<g>
		<path d="M68.133,45.196c0,0.983-0.638,1.782-1.424,1.782l0,0c-0.786,0-1.424-0.799-1.424-1.782V31.463
			c0-0.984,0.638-1.782,1.424-1.782l0,0c0.786,0,1.424,0.798,1.424,1.782V45.196z"/>
	</g>
	<g>
		<g>
			<rect x="86.535" y="33.696" width="5.65" height="2.691"/>
		</g>
		<g>
			<g>
				<rect x="86.535" y="38.382" width="5.65" height="2.693"/>
			</g>
		</g>
	</g>
	<g>
		<path d="M93.789,42.496c0,0.829-0.337,1.5-0.754,1.5h-1.933c-0.417,0-0.753-0.671-0.753-1.5V32.273
			c0-0.828,0.336-1.499,0.753-1.499h1.933c0.417,0,0.754,0.671,0.754,1.499V42.496z"/>
	</g>
	<path d="M88.16,45.589h-0.596V25.911c0-1.259-0.975-2.278-2.179-2.278c0,0-6.346-2.267-18.396-2.267
		c-12.052,0-19.236,2.267-19.236,2.267c-1.202,0-2.179,1.02-2.179,2.278v19.678h-0.316c-1.607,0-2.911,1.266-2.911,2.829v17.803
		c0,1.563,1.304,2.83,2.911,2.83h2.495h37.633h2.774c1.607,0,2.912-1.268,2.912-2.83V48.418
		C91.072,46.854,89.768,45.589,88.16,45.589z M83.315,25.268c0.852,0,1.541,0.689,1.541,1.541c0,0.851-0.689,1.539-1.541,1.539
		c-0.85,0-1.539-0.688-1.539-1.539C81.776,25.957,82.466,25.268,83.315,25.268z M79.517,25.268c0.851,0,1.54,0.689,1.54,1.541
		c0,0.851-0.689,1.539-1.54,1.539s-1.539-0.688-1.539-1.539C77.978,25.957,78.666,25.268,79.517,25.268z M83.241,31.438
		c0.804,0,1.456,0.594,1.456,1.326v10.82c0,0.732-0.652,1.328-1.456,1.328H50.177c-0.804,0-1.456-0.596-1.456-1.328v-10.82
		c0-0.732,0.652-1.326,1.456-1.326H83.241z M53.622,25.268c0.851,0,1.539,0.689,1.539,1.541c0,0.851-0.688,1.539-1.539,1.539
		s-1.541-0.688-1.541-1.539C52.081,25.957,52.771,25.268,53.622,25.268z M49.822,25.268c0.851,0,1.539,0.689,1.539,1.541
		c0,0.851-0.688,1.539-1.539,1.539c-0.85,0-1.541-0.688-1.541-1.539C48.281,25.957,48.973,25.268,49.822,25.268z M49.579,62.956
		h-2.663c-0.823,0-1.492-0.668-1.492-1.493c0-0.824,0.669-1.492,1.492-1.492h2.663c0.824,0,1.492,0.668,1.492,1.492
		C51.071,62.288,50.403,62.956,49.579,62.956z M48.248,58.162c-1.56,0-2.824-1.263-2.824-2.822c0-1.561,1.265-2.824,2.824-2.824
		s2.823,1.264,2.823,2.824C51.071,56.899,49.808,58.162,48.248,58.162z M77.995,63.11H55.143c-0.386,0-0.698-0.313-0.698-0.699
		s0.313-0.7,0.698-0.7h22.853c0.387,0,0.698,0.314,0.698,0.7S78.382,63.11,77.995,63.11z M77.995,60.278H55.143
		c-0.386,0-0.698-0.313-0.698-0.699s0.313-0.699,0.698-0.699h22.853c0.387,0,0.698,0.313,0.698,0.699S78.382,60.278,77.995,60.278z
		 M77.995,57.447H55.143c-0.386,0-0.698-0.313-0.698-0.699s0.313-0.699,0.698-0.699h22.853c0.387,0,0.698,0.313,0.698,0.699
		S78.382,57.447,77.995,57.447z M77.995,54.614H55.143c-0.386,0-0.698-0.313-0.698-0.698c0-0.387,0.313-0.699,0.698-0.699h22.853
		c0.387,0,0.698,0.313,0.698,0.699C78.693,54.302,78.382,54.614,77.995,54.614z M86.222,62.956h-2.663
		c-0.824,0-1.492-0.668-1.492-1.493c0-0.824,0.668-1.492,1.492-1.492h2.663c0.824,0,1.493,0.668,1.493,1.492
		C87.715,62.288,87.046,62.956,86.222,62.956z M84.89,58.162c-1.559,0-2.823-1.263-2.823-2.822c0-1.561,1.265-2.824,2.823-2.824
		c1.561,0,2.825,1.264,2.825,2.824C87.715,56.899,86.45,58.162,84.89,58.162z"/>
</g>
</svg>
