<?xml version="1.0" encoding="utf-8"?>
<!-- Generator: Adobe Illustrator 16.0.0, SVG Export Plug-In . SVG Version: 6.00 Build 0)  -->
<!DOCTYPE svg PUBLIC "-//W3C//DTD SVG 1.1//EN" "http://www.w3.org/Graphics/SVG/1.1/DTD/svg11.dtd">
<svg version="1.1" id="Layer_1" xmlns="http://www.w3.org/2000/svg" xmlns:xlink="http://www.w3.org/1999/xlink" x="0px" y="0px"
	 width="100px" height="100px" viewBox="0 0 100 100" style="enable-background:new 0 0 100 100;" xml:space="preserve">
<g>
	<path d="M61.116,42.844l0.063-1.675l-1.671-0.128c-0.007-0.759-0.058-1.523-0.153-2.293l1.64-0.351l-0.285-1.65l-1.662,0.22
		c-0.167-0.767-0.38-1.515-0.631-2.238l1.531-0.684l-0.622-1.557l-1.575,0.559c-0.322-0.712-0.689-1.396-1.089-2.057l1.356-0.986
		l-0.933-1.393l-1.43,0.877c-0.463-0.627-0.959-1.224-1.49-1.787l1.122-1.25l-1.2-1.166l-1.218,1.156
		c-0.582-0.515-1.189-0.997-1.828-1.44l0.838-1.454l-1.417-0.893l-0.949,1.382c-0.673-0.384-1.371-0.723-2.088-1.024l0.517-1.598
		l-1.572-0.578l-0.64,1.548c-0.737-0.232-1.489-0.426-2.256-0.573l0.174-1.663l-1.659-0.239l-0.304,1.647
		c-0.768-0.075-1.543-0.107-2.326-0.092l-0.177-1.663l-1.671,0.11l0.044,1.677c-0.378,0.043-0.758,0.095-1.137,0.16
		c-0.39,0.067-0.773,0.148-1.155,0.237l-0.521-1.594l-1.611,0.457l0.391,1.625c-0.742,0.247-1.462,0.54-2.158,0.868l-0.841-1.451
		l-1.48,0.782l0.721,1.511c-0.671,0.395-1.315,0.828-1.931,1.297l-1.123-1.244l-1.287,1.073l1.022,1.33
		c-0.571,0.527-1.118,1.08-1.623,1.668l-1.357-0.982l-1.035,1.317l1.277,1.087c-0.451,0.632-0.862,1.291-1.236,1.97l-1.535-0.679
		l-0.739,1.502l1.477,0.798c-0.312,0.71-0.579,1.439-0.805,2.186l-1.64-0.346l-0.41,1.623l1.608,0.475
		c-0.154,0.756-0.271,1.524-0.336,2.304l-1.671,0.004l-0.062,1.673l1.671,0.13c0.007,0.758,0.058,1.522,0.153,2.292l-1.639,0.349
		l0.283,1.65l1.661-0.22c0.17,0.768,0.381,1.516,0.635,2.242l-1.533,0.682l0.623,1.555l1.573-0.558
		c0.324,0.712,0.69,1.396,1.09,2.059l-1.355,0.984l0.933,1.393l1.427-0.877c0.463,0.627,0.96,1.225,1.491,1.79l-1.12,1.245
		l1.201,1.169l1.215-1.158c0.582,0.517,1.191,0.998,1.83,1.443l-0.84,1.452l1.418,0.894l0.946-1.384
		c0.675,0.384,1.375,0.725,2.093,1.026l-0.519,1.596l1.571,0.579l0.641-1.55c0.736,0.235,1.489,0.428,2.257,0.575l-0.175,1.663
		l1.658,0.239l0.304-1.646c0.768,0.074,1.545,0.106,2.329,0.09l0.175,1.664l1.672-0.111l-0.047-1.676
		c0.379-0.043,0.759-0.096,1.14-0.161c0.39-0.067,0.773-0.147,1.155-0.236l0.519,1.595l1.611-0.457l-0.392-1.625
		c0.743-0.248,1.464-0.541,2.161-0.869l0.839,1.45l1.482-0.78l-0.724-1.511c0.674-0.395,1.317-0.83,1.935-1.297l1.122,1.243
		l1.286-1.073l-1.024-1.329c0.576-0.526,1.12-1.08,1.626-1.669l1.355,0.982l1.036-1.316l-1.278-1.086
		c0.452-0.634,0.864-1.293,1.239-1.973l1.534,0.68l0.738-1.503l-1.477-0.796c0.312-0.711,0.58-1.441,0.806-2.187l1.639,0.347
		l0.409-1.625l-1.608-0.472c0.156-0.757,0.272-1.525,0.337-2.305L61.116,42.844z M39.768,46.067c-2.686,0-4.863-2.177-4.863-4.864
		c0-2.687,2.178-4.864,4.863-4.864s4.864,2.178,4.864,4.864C44.632,43.891,42.453,46.067,39.768,46.067z"/>
	<path d="M81.59,65.815l0.006-2.152l-1.559-0.119c-0.056-0.643-0.156-1.271-0.302-1.886l1.446-0.596l-0.677-2.043l-1.52,0.385
		c-0.238-0.547-0.513-1.076-0.82-1.581l1.198-1.018l-1.272-1.736l-1.339,0.843c-0.394-0.442-0.816-0.856-1.267-1.243l0.836-1.354
		l-1.745-1.258l-1.025,1.225c-0.507-0.297-1.033-0.562-1.58-0.792l0.381-1.557l-2.047-0.659l-0.605,1.5
		c-0.565-0.124-1.146-0.211-1.738-0.258l-0.119-1.627l-2.149,0.003l-0.115,1.636c-0.588,0.058-1.162,0.155-1.725,0.285l-0.622-1.528
		l-2.046,0.666l0.4,1.614c-0.534,0.232-1.051,0.496-1.545,0.796l-1.076-1.277l-1.739,1.264l0.89,1.43
		c-0.434,0.382-0.839,0.792-1.218,1.228l-1.437-0.896l-1.266,1.738l1.296,1.095c-0.292,0.492-0.558,1.003-0.784,1.534l-1.646-0.411
		l-0.67,2.046l1.579,0.645c-0.126,0.554-0.218,1.12-0.272,1.697l-1.703,0.118l-0.007,2.151l1.703,0.126
		c0.054,0.621,0.15,1.229,0.289,1.821l-1.577,0.653l0.677,2.043l1.648-0.415c0.229,0.527,0.489,1.039,0.782,1.529l-1.288,1.1
		l1.272,1.735l1.434-0.898c0.379,0.432,0.786,0.84,1.218,1.218l-0.883,1.435l1.745,1.258l1.074-1.28
		c0.494,0.295,1.008,0.561,1.542,0.793l-0.391,1.612l2.047,0.661l0.619-1.531c0.561,0.128,1.133,0.222,1.719,0.276l0.123,1.638
		l2.151-0.003l0.117-1.626c0.59-0.051,1.166-0.141,1.73-0.267l0.614,1.499l2.045-0.666l-0.383-1.556
		c0.543-0.23,1.069-0.498,1.572-0.796l1.03,1.222l1.74-1.266l-0.836-1.353c0.445-0.386,0.864-0.803,1.256-1.244l1.344,0.836
		l1.267-1.738l-1.199-1.018c0.307-0.505,0.578-1.031,0.815-1.578l1.52,0.376l0.669-2.045l-1.447-0.594
		c0.133-0.571,0.229-1.156,0.283-1.756L81.59,65.815z M66.791,67.358c-1.471,0-2.664-1.193-2.664-2.665
		c0-1.473,1.193-2.664,2.664-2.664c1.472,0,2.665,1.191,2.665,2.664C69.456,66.165,68.263,67.358,66.791,67.358z"/>
	<path d="M51.552,72.579l1.489-0.143v-1.795l-1.49-0.142c-0.094-0.728-0.281-1.428-0.554-2.081l1.212-0.867l-0.901-1.553
		l-1.353,0.62c-0.437-0.574-0.951-1.087-1.525-1.527l0.612-1.349l-1.559-0.894l-0.849,1.199c-0.659-0.275-1.364-0.464-2.099-0.56
		l-0.146-1.456l-1.795,0.008l-0.131,1.448c-0.74,0.095-1.448,0.284-2.112,0.564l-0.841-1.17l-1.55,0.908l0.602,1.301
		c-0.581,0.448-1.104,0.972-1.547,1.557l-1.303-0.583l-0.886,1.561l1.163,0.816c-0.27,0.652-0.455,1.35-0.547,2.074l-1.417,0.134
		l0.002,1.794l1.416,0.132c0.095,0.747,0.288,1.464,0.571,2.133l-1.156,0.824l0.899,1.554l1.298-0.599
		c0.449,0.583,0.976,1.104,1.564,1.551l-0.594,1.304l1.558,0.894l0.829-1.18c0.667,0.273,1.379,0.461,2.122,0.548l0.141,1.448
		l1.795-0.008l0.13-1.457c0.735-0.101,1.44-0.299,2.1-0.583l0.856,1.197l1.55-0.907l-0.627-1.344
		c0.572-0.444,1.085-0.963,1.52-1.542l1.354,0.611l0.887-1.561l-1.222-0.854C51.28,73.967,51.462,73.288,51.552,72.579z
		 M43.534,73.577c-1.123,0-2.033-0.91-2.033-2.034c0-1.123,0.91-2.034,2.033-2.034c1.124,0,2.035,0.911,2.035,2.034
		C45.569,72.667,44.658,73.577,43.534,73.577z"/>
</g>
</svg>
