<?xml version="1.0" encoding="utf-8"?>
<!-- Generator: Adobe Illustrator 16.0.0, SVG Export Plug-In . SVG Version: 6.00 Build 0)  -->
<!DOCTYPE svg PUBLIC "-//W3C//DTD SVG 1.1//EN" "http://www.w3.org/Graphics/SVG/1.1/DTD/svg11.dtd">
<svg version="1.1" id="Layer_1" xmlns="http://www.w3.org/2000/svg" xmlns:xlink="http://www.w3.org/1999/xlink" x="0px" y="0px"
	 width="100px" height="100px" viewBox="0 0 100 100" style="enable-background:new 0 0 100 100;" xml:space="preserve">
<g>
	<g>
		<path d="M69.886,58.5c0,1.396-0.975,2.527-2.176,2.527h-9.158c-1.201,0-2.176-1.131-2.176-2.527V35.026
			c0-1.396,0.975-2.527,2.176-2.527h6.99c3.087,0,4.344,1.24,4.344,5.649V58.5z"/>
	</g>
</g>
<g>
	<g>
		<path d="M62.784,82.785c0,1.77-1.434,3.205-3.203,3.205l0,0c-1.77,0-3.205-1.436-3.205-3.205v-23.63
			c0-1.77,1.436-3.204,3.205-3.204l0,0c1.77,0,3.203,1.435,3.203,3.204V82.785z"/>
	</g>
</g>
<g>
	<g>
		<path d="M69.827,82.785c0,1.77-1.435,3.205-3.205,3.205l0,0c-1.77,0-3.205-1.436-3.205-3.205v-23.63
			c0-1.77,1.436-3.204,3.205-3.204l0,0c1.771,0,3.205,1.435,3.205,3.204V82.785z"/>
	</g>
</g>
<g>
	<g>
		<circle cx="63.131" cy="25.329" r="5.661"/>
	</g>
</g>
<g>
	<g>
		<path d="M38.737,35.275c-0.15,0-0.302-0.058-0.417-0.172l-5.197-5.198c-0.229-0.23-0.229-0.603,0-0.834
			c0.23-0.229,0.603-0.229,0.834,0l5.197,5.199c0.229,0.229,0.229,0.603,0,0.833C39.039,35.218,38.889,35.275,38.737,35.275
			L38.737,35.275z"/>
	</g>
</g>
<g>
	<path d="M74.384,54.763H26.928c-1.412,0-2.561-1.205-2.561-2.684V16.714c0-1.479,1.148-2.682,2.561-2.682h47.456
		c1.411,0,2.561,1.203,2.561,2.682v35.365C76.944,53.558,75.795,54.763,74.384,54.763L74.384,54.763z M26.928,15.908
		c-0.376,0-0.683,0.362-0.683,0.806v35.365c0,0.443,0.307,0.806,0.683,0.806h47.456c0.376,0,0.683-0.362,0.683-0.806V16.714
		c0-0.443-0.307-0.806-0.683-0.806H26.928L26.928,15.908z"/>
</g>
<g>
	<path d="M59.642,33.209c0.88,0.88,0.88,2.306,0,3.186l-9.695,9.696c-0.88,0.88-2.306,0.88-3.186,0l-0.05-0.051
		c-0.881-0.88-0.881-2.306,0-3.186l9.695-9.695c0.88-0.881,2.306-0.881,3.186,0L59.642,33.209z"/>
</g>
<g>
	<path d="M37.115,33.159c0.879-0.879,2.305-0.879,3.185,0l9.696,9.695c0.879,0.88,0.879,2.306,0,3.186l-0.05,0.05
		c-0.88,0.881-2.306,0.881-3.186,0l-9.696-9.695c-0.881-0.879-0.881-2.306,0-3.186L37.115,33.159z"/>
</g>
</svg>
